<svg width="24" height="24" viewBox="0 0 24 24" fill="none" xmlns="http://www.w3.org/2000/svg">
    <path fill-rule="evenodd" clip-rule="evenodd" d="M11.087 2.18126C11.6699 1.93958 12.3225 1.93958 12.9054 2.18126L20.0409 5.1088C20.3262 5.22622 20.5702 5.42822 20.7412 5.68855C20.9123 5.94889 21.0024 6.25554 21 6.56867V10.0583C21.0054 12.7181 20.1699 15.3092 18.617 17.4487C17.0641 19.5883 14.876 21.163 12.376 21.9402C12.1262 22.0199 11.8585 22.0199 11.6087 21.9402C9.10842 21.1606 6.92121 19.5826 5.3708 17.4399C3.82039 15.2972 2.98915 12.7035 3.00011 10.0427V6.56867C3.00073 6.25819 3.0923 5.95496 3.26314 5.6977C3.43397 5.44044 3.67631 5.24085 3.95918 5.12442L11.087 2.18126Z" fill="#9F1420"/>
    <path d="M12.569 16.8375C12.7089 16.6932 12.7874 16.4976 12.7874 16.2935C12.7874 16.0895 12.7089 15.8938 12.569 15.7496C12.4292 15.6053 12.2396 15.5242 12.0418 15.5242C11.8425 15.5242 11.6512 15.6047 11.5088 15.7485C11.3663 15.8923 11.2842 16.088 11.28 16.2935C11.2842 16.4991 11.3663 16.6947 11.5088 16.8385C11.6512 16.9824 11.8425 17.0629 12.0418 17.0628C12.2396 17.0628 12.4292 16.9818 12.569 16.8375Z" fill="white"/>
    <path d="M11.5031 7.94451C11.3602 8.09192 11.28 8.29184 11.28 8.5003V13.1495C11.28 13.3579 11.3602 13.5579 11.5031 13.7053C11.646 13.8527 11.8398 13.9355 12.0418 13.9355C12.1411 13.9355 12.2394 13.9151 12.3309 13.8754C12.4225 13.8357 12.5054 13.7775 12.5748 13.7043C12.6443 13.6311 12.6989 13.5443 12.7354 13.449C12.7719 13.3537 12.7896 13.2519 12.7874 13.1495V8.5003C12.7896 8.39788 12.7719 8.29604 12.7354 8.20077C12.6989 8.10549 12.6443 8.01871 12.5748 7.94549C12.5054 7.87228 12.4225 7.81411 12.3309 7.77441C12.2394 7.7347 12.1411 7.71426 12.0418 7.71429C11.8398 7.71429 11.646 7.79711 11.5031 7.94451Z" fill="white"/>
</svg>
