<svg width="16" height="16" viewBox="0 0 16 16" fill="none" xmlns="http://www.w3.org/2000/svg">
    <path fill-rule="evenodd" clip-rule="evenodd" d="M7.39133 1.45422C7.7799 1.29309 8.21502 1.29309 8.60359 1.45422L13.3606 3.40591C13.5508 3.48419 13.7135 3.61885 13.8275 3.79241C13.9415 3.96597 14.0016 4.1704 14 4.37915V6.70557C14.0036 8.47877 13.4466 10.2061 12.4113 11.6325C11.376 13.0589 9.91733 14.1087 8.25066 14.6268C8.08416 14.68 7.90565 14.68 7.73915 14.6268C6.07228 14.1071 4.61414 13.0551 3.58053 11.6266C2.54693 10.1981 1.99277 8.46902 2.00007 6.69516V4.37915C2.00048 4.17217 2.06153 3.97001 2.17542 3.79851C2.28931 3.627 2.45087 3.49394 2.63945 3.41632L7.39133 1.45422Z" fill="#9F1420"/>
    <path d="M8.37935 11.225C8.47257 11.1289 8.52495 10.9984 8.52495 10.8624C8.52495 10.7264 8.47257 10.5959 8.37935 10.4998C8.28613 10.4036 8.1597 10.3495 8.02787 10.3495C7.89502 10.3495 7.76745 10.4032 7.6725 10.4991C7.57756 10.5949 7.52281 10.7254 7.51998 10.8624C7.52281 10.9994 7.57756 11.1299 7.6725 11.2257C7.76745 11.3216 7.89502 11.3753 8.02787 11.3753C8.1597 11.3753 8.28613 11.3212 8.37935 11.225Z" fill="#2D2D2D"/>
    <path d="M7.66874 5.29638C7.57349 5.39465 7.51998 5.52793 7.51998 5.66691V8.76636C7.51998 8.90534 7.57349 9.03862 7.66874 9.13689C7.76399 9.23516 7.89317 9.29037 8.02787 9.29037C8.09406 9.29039 8.1596 9.27676 8.22062 9.25029C8.28165 9.22382 8.33693 9.18505 8.38323 9.13624C8.42953 9.08743 8.46592 9.02957 8.49026 8.96605C8.51459 8.90253 8.52639 8.83464 8.52495 8.76636V5.66691C8.52639 5.59863 8.51459 5.53073 8.49026 5.46722C8.46592 5.4037 8.42953 5.34585 8.38323 5.29704C8.33693 5.24823 8.28165 5.20945 8.22062 5.18298C8.1596 5.15651 8.09406 5.14288 8.02787 5.1429C7.89317 5.1429 7.76399 5.19811 7.66874 5.29638Z" fill="#2D2D2D"/>
</svg>
