<svg width="16" height="16" viewBox="0 0 16 16" fill="none" xmlns="http://www.w3.org/2000/svg">
    <path fill-rule="evenodd" clip-rule="evenodd" d="M7.39133 1.45409C7.7799 1.29297 8.21502 1.29297 8.60359 1.45409L13.3606 3.40579C13.5508 3.48407 13.7135 3.61873 13.8275 3.79229C13.9415 3.96585 14.0016 4.17028 14 4.37903V6.70545C14.0036 8.47865 13.4466 10.206 12.4113 11.6324C11.376 13.0588 9.91733 14.1086 8.25066 14.6267C8.08416 14.6799 7.90565 14.6799 7.73915 14.6267C6.07228 14.107 4.61414 13.055 3.58053 11.6265C2.54693 10.198 1.99277 8.4689 2.00007 6.69504V4.37903C2.00048 4.17205 2.06153 3.96989 2.17542 3.79838C2.28931 3.62688 2.45087 3.49382 2.63945 3.4162L7.39133 1.45409Z" fill="#E93838"/>
    <path d="M10.3694 10.7854H9.39588V8.02736H6.66181V10.7854H5.69231V4.66659H6.66181V7.16938H9.39588V4.66659H10.3694V10.7854Z" fill="#2D2D2D"/>
</svg>