<svg width="20" height="20" viewBox="0 0 20 20" fill="none" xmlns="http://www.w3.org/2000/svg">
    <path fill-rule="evenodd" clip-rule="evenodd" d="M9.23916 1.81804C9.72488 1.61664 10.2688 1.61664 10.7545 1.81804L16.7007 4.25766C16.9385 4.35551 17.1418 4.52384 17.2844 4.74079C17.4269 4.95773 17.502 5.21327 17.5 5.47422V8.38224C17.5045 10.5987 16.8083 12.758 15.5142 14.541C14.2201 16.3239 12.3967 17.6362 10.3133 18.2838C10.1052 18.3503 9.88206 18.3503 9.67394 18.2838C7.59035 17.6341 5.76768 16.3192 4.47567 14.5336C3.18366 12.748 2.49096 10.5866 2.50009 8.36922V5.47422C2.5006 5.21549 2.57692 4.96279 2.71928 4.74841C2.86164 4.53403 3.06359 4.3677 3.29931 4.27067L9.23916 1.81804Z" fill="#999DB4"/>
    <path d="M6.53846 9.40509C6.53846 9.07635 6.79676 8.80985 7.11538 8.80985H12.8846C13.2032 8.80985 13.4615 9.07635 13.4615 9.40509C13.4615 9.73383 13.2032 10.0003 12.8846 10.0003H7.11538C6.79676 10.0003 6.53846 9.73383 6.53846 9.40509Z" fill="white"/>
</svg>
