<svg width="70" height="20" viewBox="0 0 70 20" fill="none" xmlns="http://www.w3.org/2000/svg">
    <rect x="0.5" y="0.5" width="69" height="19" rx="1.5" fill="#FFF1F2"/>
    <path d="M11.3721 14L10.6738 12.0176H7.94434L7.24609 14H6.01074L8.66699 6.83203H9.96582L12.6172 14H11.3721ZM10.3711 11.0117L9.69238 9.05859C9.66634 8.97396 9.62891 8.85514 9.58008 8.70215C9.53125 8.5459 9.48242 8.38802 9.43359 8.22852C9.38477 8.06576 9.34408 7.92904 9.31152 7.81836C9.27897 7.95182 9.23828 8.10156 9.18945 8.26758C9.14388 8.43034 9.09831 8.58333 9.05273 8.72656C9.01042 8.86979 8.97786 8.98047 8.95508 9.05859L8.27148 11.0117H10.3711ZM15.6348 6.86133C16.556 6.86133 17.2282 7.05013 17.6514 7.42773C18.0745 7.80534 18.2861 8.33431 18.2861 9.01465C18.2861 9.32389 18.2373 9.61849 18.1396 9.89844C18.0452 10.1751 17.889 10.4209 17.6709 10.6357C17.4528 10.8473 17.1647 11.015 16.8066 11.1387C16.4518 11.2624 16.014 11.3242 15.4932 11.3242H14.7314V14H13.5596V6.86133H15.6348ZM15.5566 7.83301H14.7314V10.3477H15.3711C15.7389 10.3477 16.0514 10.3053 16.3086 10.2207C16.5658 10.1328 16.7611 9.99447 16.8945 9.80566C17.028 9.61686 17.0947 9.36784 17.0947 9.05859C17.0947 8.64518 16.9694 8.33757 16.7188 8.13574C16.4714 7.93392 16.084 7.83301 15.5566 7.83301ZM21.7871 6.86133C22.7083 6.86133 23.3805 7.05013 23.8037 7.42773C24.2269 7.80534 24.4385 8.33431 24.4385 9.01465C24.4385 9.32389 24.3896 9.61849 24.292 9.89844C24.1976 10.1751 24.0413 10.4209 23.8232 10.6357C23.6051 10.8473 23.3171 11.015 22.959 11.1387C22.6042 11.2624 22.1663 11.3242 21.6455 11.3242H20.8838V14H19.7119V6.86133H21.7871ZM21.709 7.83301H20.8838V10.3477H21.5234C21.8913 10.3477 22.2038 10.3053 22.4609 10.2207C22.7181 10.1328 22.9134 9.99447 23.0469 9.80566C23.1803 9.61686 23.2471 9.36784 23.2471 9.05859C23.2471 8.64518 23.1217 8.33757 22.8711 8.13574C22.6237 7.93392 22.2363 7.83301 21.709 7.83301ZM25.8643 14V6.86133H27.0361V13.0039H30.0684V14H25.8643ZM31.3037 14V6.86133H32.4756V14H31.3037ZM37.4023 7.75488C37.0605 7.75488 36.7546 7.81673 36.4844 7.94043C36.2174 8.06413 35.9912 8.24316 35.8057 8.47754C35.6201 8.70866 35.4785 8.99023 35.3809 9.32227C35.2832 9.65104 35.2344 10.0221 35.2344 10.4355C35.2344 10.9889 35.3125 11.4658 35.4688 11.8662C35.625 12.2633 35.8626 12.5693 36.1816 12.7842C36.5007 12.9958 36.9043 13.1016 37.3926 13.1016C37.6953 13.1016 37.9899 13.0723 38.2764 13.0137C38.5628 12.9551 38.859 12.8753 39.165 12.7744V13.7705C38.8753 13.8844 38.5824 13.9674 38.2861 14.0195C37.9899 14.0716 37.6481 14.0977 37.2607 14.0977C36.5316 14.0977 35.9261 13.9463 35.4443 13.6436C34.9658 13.3408 34.6077 12.9144 34.3701 12.3643C34.1357 11.8141 34.0186 11.1696 34.0186 10.4307C34.0186 9.8903 34.0934 9.39551 34.2432 8.94629C34.3929 8.49707 34.611 8.1097 34.8975 7.78418C35.1839 7.4554 35.5371 7.20312 35.957 7.02734C36.3802 6.84831 36.8636 6.75879 37.4072 6.75879C37.7653 6.75879 38.1169 6.79948 38.4619 6.88086C38.8102 6.95898 39.1325 7.07129 39.4287 7.21777L39.0186 8.18457C38.7712 8.06738 38.5124 7.96647 38.2422 7.88184C37.972 7.7972 37.6921 7.75488 37.4023 7.75488ZM45.1221 14L44.4238 12.0176H41.6943L40.9961 14H39.7607L42.417 6.83203H43.7158L46.3672 14H45.1221ZM44.1211 11.0117L43.4424 9.05859C43.4163 8.97396 43.3789 8.85514 43.3301 8.70215C43.2812 8.5459 43.2324 8.38802 43.1836 8.22852C43.1348 8.06576 43.0941 7.92904 43.0615 7.81836C43.029 7.95182 42.9883 8.10156 42.9395 8.26758C42.8939 8.43034 42.8483 8.58333 42.8027 8.72656C42.7604 8.86979 42.7279 8.98047 42.7051 9.05859L42.0215 11.0117H44.1211ZM47.3096 6.86133H49.4336C50.3548 6.86133 51.0498 6.99479 51.5186 7.26172C51.9873 7.52865 52.2217 7.98926 52.2217 8.64355C52.2217 8.91699 52.1729 9.16439 52.0752 9.38574C51.9808 9.60384 51.8424 9.78451 51.6602 9.92773C51.4779 10.0677 51.2533 10.1621 50.9863 10.2109V10.2598C51.263 10.3086 51.5088 10.3949 51.7236 10.5186C51.9417 10.6423 52.1126 10.8197 52.2363 11.0508C52.3633 11.2819 52.4268 11.5814 52.4268 11.9492C52.4268 12.3854 52.3226 12.7565 52.1143 13.0625C51.9092 13.3685 51.6146 13.6012 51.2305 13.7607C50.8496 13.9202 50.3971 14 49.873 14H47.3096V6.86133ZM48.4814 9.80566H49.6045C50.1351 9.80566 50.5029 9.7194 50.708 9.54688C50.9131 9.37435 51.0156 9.12207 51.0156 8.79004C51.0156 8.4515 50.8936 8.20736 50.6494 8.05762C50.4085 7.90788 50.0244 7.83301 49.4971 7.83301H48.4814V9.80566ZM48.4814 10.7529V13.0186H49.7168C50.2637 13.0186 50.6478 12.9128 50.8691 12.7012C51.0905 12.4896 51.2012 12.2031 51.2012 11.8418C51.2012 11.6204 51.1507 11.4284 51.0498 11.2656C50.9521 11.1029 50.791 10.9775 50.5664 10.8896C50.3418 10.7985 50.0391 10.7529 49.6582 10.7529H48.4814ZM53.9014 14V6.86133H55.0732V13.0039H58.1055V14H53.9014ZM63.3838 14H59.3408V6.86133H63.3838V7.84766H60.5127V9.78613H63.2031V10.7676H60.5127V13.0088H63.3838V14Z" fill="#E93838"/>
    <rect x="0.5" y="0.5" width="69" height="19" rx="1.5" stroke="#F17368"/>
</svg>
