<svg width="72" height="20" viewBox="0 0 72 20" fill="none" xmlns="http://www.w3.org/2000/svg">
    <rect width="72" height="20" rx="2" fill="#E2EEFF"/>
    <path d="M11.4248 14L10.9072 12.3008H8.30469L7.78711 14H6.15625L8.67578 6.83203H10.5264L13.0557 14H11.4248ZM10.5459 11.0312L10.0283 9.37109C9.99577 9.26042 9.95182 9.11882 9.89648 8.94629C9.8444 8.77051 9.79069 8.5931 9.73535 8.41406C9.68327 8.23177 9.64095 8.07389 9.6084 7.94043C9.57585 8.07389 9.53027 8.23991 9.47168 8.43848C9.41634 8.63379 9.36263 8.81934 9.31055 8.99512C9.25846 9.1709 9.22103 9.29622 9.19824 9.37109L8.68555 11.0312H10.5459ZM16.2393 6.86133C17.1605 6.86133 17.8327 7.0599 18.2559 7.45703C18.679 7.85091 18.8906 8.39453 18.8906 9.08789C18.8906 9.40039 18.8434 9.69987 18.749 9.98633C18.6546 10.2695 18.5 10.5218 18.2852 10.7432C18.0736 10.9645 17.7904 11.1403 17.4355 11.2705C17.0807 11.3975 16.6429 11.4609 16.1221 11.4609H15.4727V14H13.959V6.86133H16.2393ZM16.1611 8.10156H15.4727V10.2207H15.9707C16.2539 10.2207 16.4997 10.1833 16.708 10.1084C16.9163 10.0335 17.0775 9.91634 17.1914 9.75684C17.3053 9.59733 17.3623 9.39225 17.3623 9.1416C17.3623 8.79004 17.2646 8.52962 17.0693 8.36035C16.874 8.18783 16.5713 8.10156 16.1611 8.10156ZM22.5186 6.86133C23.4398 6.86133 24.112 7.0599 24.5352 7.45703C24.9583 7.85091 25.1699 8.39453 25.1699 9.08789C25.1699 9.40039 25.1227 9.69987 25.0283 9.98633C24.9339 10.2695 24.7793 10.5218 24.5645 10.7432C24.3529 10.9645 24.0697 11.1403 23.7148 11.2705C23.36 11.3975 22.9222 11.4609 22.4014 11.4609H21.752V14H20.2383V6.86133H22.5186ZM22.4404 8.10156H21.752V10.2207H22.25C22.5332 10.2207 22.779 10.1833 22.9873 10.1084C23.1956 10.0335 23.3568 9.91634 23.4707 9.75684C23.5846 9.59733 23.6416 9.39225 23.6416 9.1416C23.6416 8.79004 23.5439 8.52962 23.3486 8.36035C23.1533 8.18783 22.8506 8.10156 22.4404 8.10156ZM26.5176 14V6.86133H28.0312V12.75H30.9268V14H26.5176ZM32.1719 14V6.86133H33.6855V14H32.1719ZM38.5146 8.01855C38.2249 8.01855 37.9678 8.07552 37.7432 8.18945C37.5218 8.30013 37.3346 8.46126 37.1816 8.67285C37.0319 8.88444 36.918 9.13997 36.8398 9.43945C36.7617 9.73893 36.7227 10.0758 36.7227 10.4502C36.7227 10.9548 36.7845 11.3861 36.9082 11.7441C37.0352 12.099 37.2305 12.3708 37.4941 12.5596C37.7578 12.7451 38.098 12.8379 38.5146 12.8379C38.8044 12.8379 39.0941 12.8053 39.3838 12.7402C39.6768 12.6751 39.9941 12.5824 40.3359 12.4619V13.7314C40.0202 13.8617 39.7093 13.9544 39.4033 14.0098C39.0973 14.0684 38.7539 14.0977 38.373 14.0977C37.6374 14.0977 37.0319 13.9463 36.5566 13.6436C36.0846 13.3376 35.7347 12.9111 35.5068 12.3643C35.279 11.8141 35.165 11.1729 35.165 10.4404C35.165 9.90007 35.2383 9.40527 35.3848 8.95605C35.5312 8.50684 35.7461 8.11784 36.0293 7.78906C36.3125 7.46029 36.6624 7.20638 37.0791 7.02734C37.4958 6.84831 37.9743 6.75879 38.5146 6.75879C38.8695 6.75879 39.2243 6.80436 39.5791 6.89551C39.9372 6.9834 40.279 7.10547 40.6045 7.26172L40.1162 8.49219C39.8493 8.36523 39.5807 8.25456 39.3105 8.16016C39.0404 8.06576 38.7751 8.01855 38.5146 8.01855ZM46.2295 14L45.7119 12.3008H43.1094L42.5918 14H40.9609L43.4805 6.83203H45.3311L47.8604 14H46.2295ZM45.3506 11.0312L44.833 9.37109C44.8005 9.26042 44.7565 9.11882 44.7012 8.94629C44.6491 8.77051 44.5954 8.5931 44.54 8.41406C44.488 8.23177 44.4456 8.07389 44.4131 7.94043C44.3805 8.07389 44.335 8.23991 44.2764 8.43848C44.221 8.63379 44.1673 8.81934 44.1152 8.99512C44.0632 9.1709 44.0257 9.29622 44.0029 9.37109L43.4902 11.0312H45.3506ZM48.7637 6.86133H50.9854C51.9359 6.86133 52.6553 6.99479 53.1436 7.26172C53.6318 7.52865 53.876 7.9974 53.876 8.66797C53.876 8.93815 53.832 9.18229 53.7441 9.40039C53.6595 9.61849 53.5358 9.79753 53.373 9.9375C53.2103 10.0775 53.0117 10.1686 52.7773 10.2109V10.2598C53.015 10.3086 53.2298 10.3932 53.4219 10.5137C53.6139 10.6309 53.7669 10.8034 53.8809 11.0312C53.998 11.2559 54.0566 11.5553 54.0566 11.9297C54.0566 12.3626 53.9508 12.7337 53.7393 13.043C53.5277 13.3522 53.2249 13.5898 52.8311 13.7559C52.4404 13.9186 51.9749 14 51.4346 14H48.7637V6.86133ZM50.2773 9.68848H51.1562C51.5957 9.68848 51.9001 9.62012 52.0693 9.4834C52.2386 9.34342 52.3232 9.13835 52.3232 8.86816C52.3232 8.59473 52.2223 8.39941 52.0205 8.28223C51.8219 8.16178 51.5062 8.10156 51.0732 8.10156H50.2773V9.68848ZM50.2773 10.8896V12.75H51.2637C51.7194 12.75 52.0368 12.6621 52.2158 12.4863C52.3949 12.3105 52.4844 12.0745 52.4844 11.7783C52.4844 11.6025 52.4453 11.4479 52.3672 11.3145C52.2891 11.181 52.1572 11.0768 51.9717 11.002C51.7894 10.9271 51.5371 10.8896 51.2148 10.8896H50.2773ZM55.4824 14V6.86133H56.9961V12.75H59.8916V14H55.4824ZM65.248 14H61.1367V6.86133H65.248V8.10156H62.6504V9.66895H65.0674V10.9092H62.6504V12.75H65.248V14Z" fill="#3A86F9"/>
</svg>
