<svg width="77" height="20" viewBox="0 0 77 20" fill="none" xmlns="http://www.w3.org/2000/svg">
<path d="M0 2C0 0.895431 0.895431 0 2 0H75C76.1046 0 77 0.895431 77 2V18C77 19.1046 76.1046 20 75 20H2C0.895431 20 0 19.1046 0 18V2Z" fill="#FFF1F2"/>
<path d="M14.8047 15L13.9668 12.6211H10.6914L9.85352 15H8.37109L11.5586 6.39844H13.1172L16.2988 15H14.8047ZM13.6035 11.4141L12.7891 9.07031C12.7578 8.96875 12.7129 8.82617 12.6543 8.64258C12.5957 8.45508 12.5371 8.26562 12.4785 8.07422C12.4199 7.87891 12.3711 7.71484 12.332 7.58203C12.293 7.74219 12.2441 7.92188 12.1855 8.12109C12.1309 8.31641 12.0762 8.5 12.0215 8.67188C11.9707 8.84375 11.9316 8.97656 11.9043 9.07031L11.084 11.4141H13.6035ZM20.6172 8.39062C21.3867 8.39062 22.0039 8.67188 22.4688 9.23438C22.9375 9.79688 23.1719 10.6328 23.1719 11.7422C23.1719 12.4766 23.0625 13.0957 22.8438 13.5996C22.6289 14.0996 22.3262 14.4785 21.9355 14.7363C21.5488 14.9902 21.0977 15.1172 20.582 15.1172C20.2539 15.1172 19.9688 15.0742 19.7266 14.9883C19.4844 14.9023 19.2773 14.791 19.1055 14.6543C18.9336 14.5137 18.7891 14.3613 18.6719 14.1973H18.5898C18.6094 14.3535 18.627 14.5273 18.6426 14.7188C18.6621 14.9062 18.6719 15.0781 18.6719 15.2344V17.877H17.2891V8.51367H18.4141L18.6074 9.41016H18.6719C18.793 9.22656 18.9395 9.05664 19.1113 8.90039C19.2871 8.74414 19.498 8.62109 19.7441 8.53125C19.9941 8.4375 20.2852 8.39062 20.6172 8.39062ZM20.248 9.51562C19.8691 9.51562 19.5645 9.5918 19.334 9.74414C19.1074 9.89258 18.9414 10.1172 18.8359 10.418C18.7344 10.7188 18.6797 11.0957 18.6719 11.5488V11.7422C18.6719 12.2227 18.7207 12.6309 18.8184 12.9668C18.9199 13.2988 19.0859 13.5527 19.3164 13.7285C19.5508 13.9004 19.8672 13.9863 20.2656 13.9863C20.6016 13.9863 20.8789 13.8945 21.0977 13.7109C21.3203 13.5273 21.4863 13.2656 21.5957 12.9258C21.7051 12.5859 21.7598 12.1855 21.7598 11.7246C21.7598 11.0254 21.6348 10.4824 21.3848 10.0957C21.1387 9.70898 20.7598 9.51562 20.248 9.51562ZM28.0938 8.39062C28.8633 8.39062 29.4805 8.67188 29.9453 9.23438C30.4141 9.79688 30.6484 10.6328 30.6484 11.7422C30.6484 12.4766 30.5391 13.0957 30.3203 13.5996C30.1055 14.0996 29.8027 14.4785 29.4121 14.7363C29.0254 14.9902 28.5742 15.1172 28.0586 15.1172C27.7305 15.1172 27.4453 15.0742 27.2031 14.9883C26.9609 14.9023 26.7539 14.791 26.582 14.6543C26.4102 14.5137 26.2656 14.3613 26.1484 14.1973H26.0664C26.0859 14.3535 26.1035 14.5273 26.1191 14.7188C26.1387 14.9062 26.1484 15.0781 26.1484 15.2344V17.877H24.7656V8.51367H25.8906L26.084 9.41016H26.1484C26.2695 9.22656 26.416 9.05664 26.5879 8.90039C26.7637 8.74414 26.9746 8.62109 27.2207 8.53125C27.4707 8.4375 27.7617 8.39062 28.0938 8.39062ZM27.7246 9.51562C27.3457 9.51562 27.041 9.5918 26.8105 9.74414C26.584 9.89258 26.418 10.1172 26.3125 10.418C26.2109 10.7188 26.1562 11.0957 26.1484 11.5488V11.7422C26.1484 12.2227 26.1973 12.6309 26.2949 12.9668C26.3965 13.2988 26.5625 13.5527 26.793 13.7285C27.0273 13.9004 27.3438 13.9863 27.7422 13.9863C28.0781 13.9863 28.3555 13.8945 28.5742 13.7109C28.7969 13.5273 28.9629 13.2656 29.0723 12.9258C29.1816 12.5859 29.2363 12.1855 29.2363 11.7246C29.2363 11.0254 29.1113 10.4824 28.8613 10.0957C28.6152 9.70898 28.2363 9.51562 27.7246 9.51562ZM33.625 15H32.2422V5.88281H33.625V15ZM36.9707 8.51367V15H35.5938V8.51367H36.9707ZM36.291 6.0293C36.502 6.0293 36.6836 6.08594 36.8359 6.19922C36.9922 6.3125 37.0703 6.50781 37.0703 6.78516C37.0703 7.05859 36.9922 7.25391 36.8359 7.37109C36.6836 7.48438 36.502 7.54102 36.291 7.54102C36.0723 7.54102 35.8867 7.48438 35.7344 7.37109C35.5859 7.25391 35.5117 7.05859 35.5117 6.78516C35.5117 6.50781 35.5859 6.3125 35.7344 6.19922C35.8867 6.08594 36.0723 6.0293 36.291 6.0293ZM41.5586 15.1172C40.9453 15.1172 40.4141 14.998 39.9648 14.7598C39.5156 14.5215 39.1699 14.1562 38.9277 13.6641C38.6855 13.1719 38.5645 12.5469 38.5645 11.7891C38.5645 11 38.6973 10.3555 38.9629 9.85547C39.2285 9.35547 39.5957 8.98633 40.0645 8.74805C40.5371 8.50977 41.0781 8.39062 41.6875 8.39062C42.0742 8.39062 42.4238 8.42969 42.7363 8.50781C43.0527 8.58203 43.3203 8.67383 43.5391 8.7832L43.1289 9.88477C42.8906 9.78711 42.6465 9.70508 42.3965 9.63867C42.1465 9.57227 41.9062 9.53906 41.6758 9.53906C41.2969 9.53906 40.9805 9.62305 40.7266 9.79102C40.4766 9.95898 40.2891 10.209 40.1641 10.541C40.043 10.873 39.9824 11.2852 39.9824 11.7773C39.9824 12.2539 40.0449 12.6562 40.1699 12.9844C40.2949 13.3086 40.4805 13.5547 40.7266 13.7227C40.9727 13.8867 41.2754 13.9688 41.6348 13.9688C41.9902 13.9688 42.3086 13.9258 42.5898 13.8398C42.8711 13.7539 43.1367 13.6426 43.3867 13.5059V14.7012C43.1406 14.8418 42.877 14.9453 42.5957 15.0117C42.3145 15.082 41.9688 15.1172 41.5586 15.1172ZM47.4531 8.39062C48.2734 8.39062 48.8926 8.57227 49.3105 8.93555C49.7324 9.29883 49.9434 9.86523 49.9434 10.6348V15H48.9648L48.7012 14.0801H48.6543C48.4707 14.3145 48.2812 14.5078 48.0859 14.6602C47.8906 14.8125 47.6641 14.9258 47.4062 15C47.1523 15.0781 46.8418 15.1172 46.4746 15.1172C46.0879 15.1172 45.7422 15.0469 45.4375 14.9062C45.1328 14.7617 44.8926 14.543 44.7168 14.25C44.541 13.957 44.4531 13.5859 44.4531 13.1367C44.4531 12.4688 44.7012 11.9668 45.1973 11.6309C45.6973 11.2949 46.4512 11.1094 47.459 11.0742L48.584 11.0332V10.6934C48.584 10.2441 48.4785 9.92383 48.2676 9.73242C48.0605 9.54102 47.7676 9.44531 47.3887 9.44531C47.0645 9.44531 46.75 9.49219 46.4453 9.58594C46.1406 9.67969 45.8438 9.79492 45.5547 9.93164L45.1094 8.95898C45.4258 8.79102 45.7852 8.6543 46.1875 8.54883C46.5938 8.44336 47.0156 8.39062 47.4531 8.39062ZM48.5781 11.9004L47.7402 11.9297C47.0527 11.9531 46.5703 12.0703 46.293 12.2812C46.0156 12.4922 45.877 12.7812 45.877 13.1484C45.877 13.4688 45.9727 13.7031 46.1641 13.8516C46.3555 13.9961 46.6074 14.0684 46.9199 14.0684C47.3965 14.0684 47.791 13.9336 48.1035 13.6641C48.4199 13.3906 48.5781 12.9902 48.5781 12.4629V11.9004ZM53.248 5.88281V8.08008C53.248 8.33398 53.2402 8.58398 53.2246 8.83008C53.2129 9.07227 53.2012 9.26172 53.1895 9.39844H53.248C53.4238 9.11719 53.668 8.88086 53.9805 8.68945C54.2969 8.49414 54.7012 8.39648 55.1934 8.39648C55.9629 8.39648 56.582 8.67969 57.0508 9.24609C57.5195 9.80859 57.7539 10.6426 57.7539 11.748C57.7539 12.4824 57.6465 13.0996 57.4316 13.5996C57.2168 14.0996 56.9141 14.4785 56.5234 14.7363C56.1367 14.9902 55.6816 15.1172 55.1582 15.1172C54.666 15.1172 54.2676 15.0273 53.9629 14.8477C53.6621 14.6641 53.4258 14.4512 53.2539 14.209H53.1543L52.9023 15H51.8711V5.88281H53.248ZM54.8301 9.51562C54.4395 9.51562 54.1289 9.59375 53.8984 9.75C53.6719 9.90625 53.5078 10.1406 53.4062 10.4531C53.3047 10.7617 53.252 11.1543 53.248 11.6309V11.7539C53.248 12.4766 53.3613 13.0293 53.5879 13.4121C53.8184 13.7949 54.2363 13.9863 54.8418 13.9863C55.3223 13.9863 55.6914 13.793 55.9492 13.4062C56.207 13.0156 56.3359 12.457 56.3359 11.7305C56.3359 10.9961 56.207 10.4434 55.9492 10.0723C55.6953 9.70117 55.3223 9.51562 54.8301 9.51562ZM60.7305 15H59.3477V5.88281H60.7305V15ZM65.2832 8.39062C65.8613 8.39062 66.3574 8.50977 66.7715 8.74805C67.1855 8.98633 67.5039 9.32422 67.7266 9.76172C67.9492 10.1992 68.0605 10.7227 68.0605 11.332V12.0703H63.7305C63.7461 12.6992 63.9141 13.1836 64.2344 13.5234C64.5586 13.8633 65.0117 14.0332 65.5938 14.0332C66.0078 14.0332 66.3789 13.9941 66.707 13.916C67.0391 13.834 67.3809 13.7148 67.7324 13.5586V14.6777C67.4082 14.8301 67.0781 14.9414 66.7422 15.0117C66.4062 15.082 66.0039 15.1172 65.5352 15.1172C64.8984 15.1172 64.3379 14.9941 63.8535 14.748C63.373 14.498 62.9961 14.127 62.7227 13.6348C62.4531 13.1426 62.3184 12.5312 62.3184 11.8008C62.3184 11.0742 62.4414 10.457 62.6875 9.94922C62.9336 9.44141 63.2793 9.05469 63.7246 8.78906C64.1699 8.52344 64.6895 8.39062 65.2832 8.39062ZM65.2832 9.42773C64.8496 9.42773 64.498 9.56836 64.2285 9.84961C63.9629 10.1309 63.8066 10.543 63.7598 11.0859H66.7129C66.709 10.7617 66.6543 10.4746 66.5488 10.2246C66.4473 9.97461 66.291 9.7793 66.0801 9.63867C65.873 9.49805 65.6074 9.42773 65.2832 9.42773Z" fill="#E93838"/>
</svg>
