<svg width="99" height="20" viewBox="0 0 99 20" fill="none" xmlns="http://www.w3.org/2000/svg">
    <rect width="99" height="20" rx="2" fill="#007ACC"/>
    <path d="M18.3721 14L17.8545 12.3008H15.252L14.7344 14H13.1035L15.623 6.83203H17.4736L20.0029 14H18.3721ZM17.4932 11.0312C17.0146 9.49154 16.7445 8.62077 16.6826 8.41895C16.624 8.21712 16.5817 8.05762 16.5557 7.94043C16.4482 8.3571 16.1406 9.38737 15.6328 11.0312H17.4932ZM23.0889 12.9111C23.3493 12.9111 23.6618 12.8542 24.0264 12.7402V13.8486C23.6553 14.0146 23.1995 14.0977 22.6592 14.0977C22.0635 14.0977 21.6289 13.9479 21.3555 13.6484C21.0853 13.3457 20.9502 12.8932 20.9502 12.291V9.65918H20.2373V9.0293L21.0576 8.53125L21.4873 7.37891H22.4395V8.54102H23.9678V9.65918H22.4395V12.291C22.4395 12.5026 22.498 12.6589 22.6152 12.7598C22.7357 12.8607 22.8936 12.9111 23.0889 12.9111ZM27.4346 12.9111C27.695 12.9111 28.0075 12.8542 28.3721 12.7402V13.8486C28.001 14.0146 27.5452 14.0977 27.0049 14.0977C26.4092 14.0977 25.9746 13.9479 25.7012 13.6484C25.431 13.3457 25.2959 12.8932 25.2959 12.291V9.65918H24.583V9.0293L25.4033 8.53125L25.833 7.37891H26.7852V8.54102H28.3135V9.65918H26.7852V12.291C26.7852 12.5026 26.8438 12.6589 26.9609 12.7598C27.0814 12.8607 27.2393 12.9111 27.4346 12.9111ZM32.9473 14L32.6592 13.2578H32.6201C32.3695 13.5736 32.1107 13.7933 31.8438 13.917C31.5801 14.0374 31.235 14.0977 30.8086 14.0977C30.2845 14.0977 29.8711 13.9479 29.5684 13.6484C29.2689 13.349 29.1191 12.9225 29.1191 12.3691C29.1191 11.7897 29.321 11.3633 29.7246 11.0898C30.1315 10.8132 30.7435 10.6602 31.5605 10.6309L32.5078 10.6016V10.3623C32.5078 9.80892 32.2246 9.53223 31.6582 9.53223C31.222 9.53223 30.7093 9.66406 30.1201 9.92773L29.627 8.92188C30.2552 8.5931 30.9518 8.42871 31.7168 8.42871C32.4492 8.42871 33.0107 8.58822 33.4014 8.90723C33.792 9.22624 33.9873 9.71126 33.9873 10.3623V14H32.9473ZM32.5078 11.4707L31.9316 11.4902C31.4987 11.5033 31.1764 11.5814 30.9648 11.7246C30.7533 11.8678 30.6475 12.0859 30.6475 12.3789C30.6475 12.7988 30.8883 13.0088 31.3701 13.0088C31.7152 13.0088 31.9902 12.9095 32.1953 12.7109C32.4036 12.5124 32.5078 12.2487 32.5078 11.9199V11.4707ZM37.7422 14.0977C36.043 14.0977 35.1934 13.165 35.1934 11.2998C35.1934 10.3721 35.4245 9.66406 35.8867 9.17578C36.349 8.68424 37.0114 8.43848 37.874 8.43848C38.5055 8.43848 39.0719 8.56217 39.5732 8.80957L39.1338 9.96191C38.8994 9.86751 38.6813 9.79102 38.4795 9.73242C38.2777 9.67057 38.0758 9.63965 37.874 9.63965C37.0993 9.63965 36.7119 10.1898 36.7119 11.29C36.7119 12.3577 37.0993 12.8916 37.874 12.8916C38.1605 12.8916 38.4258 12.8542 38.6699 12.7793C38.9141 12.7012 39.1582 12.5807 39.4023 12.418V13.6924C39.1615 13.8454 38.9173 13.9512 38.6699 14.0098C38.4258 14.0684 38.1165 14.0977 37.7422 14.0977ZM42.1025 11.0312L42.752 10.2012L44.2803 8.54102H45.96L43.792 10.9092L46.0918 14H44.373L42.8008 11.7881L42.1611 12.3008V14H40.6719V6.40234H42.1611V9.79102L42.083 11.0312H42.1025ZM49.1338 9.49805C48.818 9.49805 48.5706 9.59896 48.3916 9.80078C48.2126 9.99935 48.11 10.2826 48.084 10.6504H50.1738C50.1673 10.2826 50.0713 9.99935 49.8857 9.80078C49.7002 9.59896 49.4495 9.49805 49.1338 9.49805ZM49.3438 14.0977C48.4648 14.0977 47.778 13.8551 47.2832 13.3701C46.7884 12.8851 46.541 12.1982 46.541 11.3096C46.541 10.3949 46.7689 9.68848 47.2246 9.19043C47.6836 8.68913 48.3167 8.43848 49.124 8.43848C49.8955 8.43848 50.4961 8.6582 50.9258 9.09766C51.3555 9.53711 51.5703 10.1442 51.5703 10.9189V11.6416H48.0498C48.0661 12.0648 48.1914 12.3952 48.4258 12.6328C48.6602 12.8704 48.9889 12.9893 49.4121 12.9893C49.7409 12.9893 50.0518 12.9551 50.3447 12.8867C50.6377 12.8184 50.9437 12.7093 51.2627 12.5596V13.7119C51.0023 13.8421 50.724 13.9382 50.4277 14C50.1315 14.0651 49.7702 14.0977 49.3438 14.0977ZM55.8281 8.43848C56.0299 8.43848 56.1976 8.45312 56.3311 8.48242L56.2188 9.87891C56.0983 9.84635 55.9518 9.83008 55.7793 9.83008C55.304 9.83008 54.9329 9.95215 54.666 10.1963C54.4023 10.4404 54.2705 10.7822 54.2705 11.2217V14H52.7812V8.54102H53.9092L54.1289 9.45898H54.2021C54.3714 9.15299 54.5993 8.90723 54.8857 8.72168C55.1755 8.53288 55.4896 8.43848 55.8281 8.43848ZM64.1484 14H60.0371V6.86133H64.1484V8.10156H61.5508V9.66895H63.9678V10.9092H61.5508V12.75H64.1484V14ZM70.5645 14H69.0752V10.8115C69.0752 10.4176 69.0052 10.123 68.8652 9.92773C68.7253 9.72917 68.5023 9.62988 68.1963 9.62988C67.7796 9.62988 67.4785 9.76986 67.293 10.0498C67.1074 10.3265 67.0146 10.7871 67.0146 11.4316V14H65.5254V8.54102H66.6631L66.8633 9.23926H66.9463C67.1123 8.97559 67.3402 8.77702 67.6299 8.64355C67.9229 8.50684 68.2549 8.43848 68.626 8.43848C69.2607 8.43848 69.7425 8.611 70.0713 8.95605C70.4001 9.29785 70.5645 9.79264 70.5645 10.4404V14ZM74.3975 12.9111C74.6579 12.9111 74.9704 12.8542 75.335 12.7402V13.8486C74.9639 14.0146 74.5081 14.0977 73.9678 14.0977C73.3721 14.0977 72.9375 13.9479 72.6641 13.6484C72.3939 13.3457 72.2588 12.8932 72.2588 12.291V9.65918H71.5459V9.0293L72.3662 8.53125L72.7959 7.37891H73.748V8.54102H75.2764V9.65918H73.748V12.291C73.748 12.5026 73.8066 12.6589 73.9238 12.7598C74.0443 12.8607 74.2021 12.9111 74.3975 12.9111ZM79.4902 8.43848C79.6921 8.43848 79.8597 8.45312 79.9932 8.48242L79.8809 9.87891C79.7604 9.84635 79.6139 9.83008 79.4414 9.83008C78.9661 9.83008 78.5951 9.95215 78.3281 10.1963C78.0645 10.4404 77.9326 10.7822 77.9326 11.2217V14H76.4434V8.54102H77.5713L77.791 9.45898H77.8643C78.0335 9.15299 78.2614 8.90723 78.5479 8.72168C78.8376 8.53288 79.1517 8.43848 79.4902 8.43848ZM80.2031 8.54102H81.834L82.8643 11.6123C82.9521 11.8792 83.0124 12.195 83.0449 12.5596H83.0742C83.11 12.2243 83.18 11.9085 83.2842 11.6123L84.2949 8.54102H85.8916L83.582 14.6982C83.3704 15.2679 83.0677 15.6943 82.6738 15.9775C82.2832 16.2607 81.8258 16.4023 81.3018 16.4023C81.0446 16.4023 80.7923 16.3747 80.5449 16.3193V15.1377C80.724 15.18 80.9193 15.2012 81.1309 15.2012C81.3945 15.2012 81.624 15.1198 81.8193 14.957C82.0179 14.7975 82.1725 14.555 82.2832 14.2295L82.3711 13.9609L80.2031 8.54102Z" fill="#E2EEFF"/>
</svg>
