<svg width="96" height="20" viewBox="0 0 96 20" fill="none" xmlns="http://www.w3.org/2000/svg">
    <rect x="0.5" y="0.5" width="95" height="19" rx="1.5" fill="#FFF1F2"/>
    <path d="M11.7598 14L11.0615 12.0176H8.33203L7.63379 14H6.39844L9.05469 6.83203H10.3535L13.0049 14H11.7598ZM10.7588 11.0117L10.0801 9.05859C10.054 8.97396 10.0166 8.85514 9.96777 8.70215C9.91895 8.5459 9.87012 8.38802 9.82129 8.22852C9.77246 8.06576 9.73177 7.92904 9.69922 7.81836C9.66667 7.95182 9.62598 8.10156 9.57715 8.26758C9.53158 8.43034 9.486 8.58333 9.44043 8.72656C9.39811 8.86979 9.36556 8.98047 9.34277 9.05859L8.65918 11.0117H10.7588ZM16.4229 14H15.2461V7.85742H13.1562V6.86133H18.5078V7.85742H16.4229V14ZM22.0771 14H20.9004V7.85742H18.8105V6.86133H24.1621V7.85742H22.0771V14ZM29.6797 14L28.9814 12.0176H26.252L25.5537 14H24.3184L26.9746 6.83203H28.2734L30.9248 14H29.6797ZM28.6787 11.0117L28 9.05859C27.974 8.97396 27.9365 8.85514 27.8877 8.70215C27.8389 8.5459 27.79 8.38802 27.7412 8.22852C27.6924 8.06576 27.6517 7.92904 27.6191 7.81836C27.5866 7.95182 27.5459 8.10156 27.4971 8.26758C27.4515 8.43034 27.4059 8.58333 27.3604 8.72656C27.318 8.86979 27.2855 8.98047 27.2627 9.05859L26.5791 11.0117H28.6787ZM34.9092 7.75488C34.5674 7.75488 34.2614 7.81673 33.9912 7.94043C33.7243 8.06413 33.498 8.24316 33.3125 8.47754C33.127 8.70866 32.9854 8.99023 32.8877 9.32227C32.79 9.65104 32.7412 10.0221 32.7412 10.4355C32.7412 10.9889 32.8193 11.4658 32.9756 11.8662C33.1318 12.2633 33.3695 12.5693 33.6885 12.7842C34.0075 12.9958 34.4111 13.1016 34.8994 13.1016C35.2021 13.1016 35.4967 13.0723 35.7832 13.0137C36.0697 12.9551 36.3659 12.8753 36.6719 12.7744V13.7705C36.3822 13.8844 36.0892 13.9674 35.793 14.0195C35.4967 14.0716 35.1549 14.0977 34.7676 14.0977C34.0384 14.0977 33.4329 13.9463 32.9512 13.6436C32.4727 13.3408 32.1146 12.9144 31.877 12.3643C31.6426 11.8141 31.5254 11.1696 31.5254 10.4307C31.5254 9.8903 31.6003 9.39551 31.75 8.94629C31.8997 8.49707 32.1178 8.1097 32.4043 7.78418C32.6908 7.4554 33.0439 7.20312 33.4639 7.02734C33.887 6.84831 34.3704 6.75879 34.9141 6.75879C35.2721 6.75879 35.6237 6.79948 35.9688 6.88086C36.3171 6.95898 36.6393 7.07129 36.9355 7.21777L36.5254 8.18457C36.278 8.06738 36.0192 7.96647 35.749 7.88184C35.4788 7.7972 35.1989 7.75488 34.9092 7.75488ZM43.6494 14H42.3018L40.0801 10.7578L39.377 11.3291V14H38.2051V6.86133H39.377V10.2744C39.5202 10.0986 39.665 9.92285 39.8115 9.74707C39.958 9.57129 40.1045 9.39551 40.251 9.21973L42.2627 6.86133H43.5859L40.9199 9.98633L43.6494 14ZM48.6348 14H44.5918V6.86133H48.6348V7.84766H45.7637V9.78613H48.4541V10.7676H45.7637V13.0088H48.6348V14ZM52.1846 6.86133C52.7998 6.86133 53.3076 6.9362 53.708 7.08594C54.1117 7.23568 54.4111 7.46354 54.6064 7.76953C54.805 8.07552 54.9043 8.46452 54.9043 8.93652C54.9043 9.28809 54.8392 9.58757 54.709 9.83496C54.5788 10.0824 54.4079 10.2874 54.1963 10.4502C53.9847 10.613 53.7585 10.7432 53.5176 10.8408L55.5439 14H54.2207L52.4971 11.1387H51.3496V14H50.1777V6.86133H52.1846ZM52.1064 7.83789H51.3496V10.1719H52.1602C52.7038 10.1719 53.0977 10.071 53.3418 9.86914C53.5892 9.66732 53.7129 9.36947 53.7129 8.97559C53.7129 8.56217 53.5811 8.26921 53.3174 8.09668C53.057 7.92415 52.6533 7.83789 52.1064 7.83789ZM63.2051 14H59.1621V6.86133H63.2051V7.84766H60.334V9.78613H63.0244V10.7676H60.334V13.0088H63.2051V14ZM70.7051 14H69.2646L65.7686 8.30176H65.7246C65.7376 8.49382 65.749 8.69727 65.7588 8.91211C65.7718 9.12695 65.7816 9.34831 65.7881 9.57617C65.7979 9.80404 65.806 10.0352 65.8125 10.2695V14H64.748V6.86133H66.1787L69.6699 12.5205H69.7041C69.6976 12.3545 69.6895 12.1641 69.6797 11.9492C69.6699 11.7344 69.6602 11.513 69.6504 11.2852C69.6439 11.054 69.639 10.8311 69.6357 10.6162V6.86133H70.7051V14ZM75.0557 14H73.8789V7.85742H71.7891V6.86133H77.1406V7.85742H75.0557V14ZM80.2412 6.86133C80.8564 6.86133 81.3643 6.9362 81.7646 7.08594C82.1683 7.23568 82.4678 7.46354 82.6631 7.76953C82.8617 8.07552 82.9609 8.46452 82.9609 8.93652C82.9609 9.28809 82.8958 9.58757 82.7656 9.83496C82.6354 10.0824 82.4645 10.2874 82.2529 10.4502C82.0413 10.613 81.8151 10.7432 81.5742 10.8408L83.6006 14H82.2773L80.5537 11.1387H79.4062V14H78.2344V6.86133H80.2412ZM80.1631 7.83789H79.4062V10.1719H80.2168C80.7604 10.1719 81.1543 10.071 81.3984 9.86914C81.6458 9.66732 81.7695 9.36947 81.7695 8.97559C81.7695 8.56217 81.6377 8.26921 81.374 8.09668C81.1136 7.92415 80.71 7.83789 80.1631 7.83789ZM86.6426 10.1182L88.3369 6.86133H89.6016L87.2285 11.2266V14H86.0615V11.2705L83.6836 6.86133H84.958L86.6426 10.1182Z" fill="#E93838"/>
    <rect x="0.5" y="0.5" width="95" height="19" rx="1.5" stroke="#F17368"/>
</svg>
