<svg width="20" height="20" viewBox="0 0 20 20" fill="none" xmlns="http://www.w3.org/2000/svg">
    <path d="M8.63633 2.5C7.42268 2.5 6.23628 2.85989 5.22717 3.53416C4.21806 4.20843 3.43155 5.16679 2.9671 6.28806C2.50266 7.40932 2.38114 8.64314 2.61791 9.83347C2.85468 11.0238 3.43911 12.1172 4.29729 12.9754C5.15547 13.8335 6.24886 14.418 7.43919 14.6547C8.62952 14.8915 9.86334 14.77 10.9846 14.3056C12.1059 13.8411 13.0642 13.0546 13.7385 12.0455C14.4128 11.0364 14.7727 9.84998 14.7727 8.63633C14.7726 7.0089 14.126 5.44817 12.9753 4.2974C11.8245 3.14664 10.2638 2.5001 8.63633 2.5Z" stroke="#F0F0F0" stroke-miterlimit="10"/>
    <path d="M13.2145 13.2145L17.5 17.5" stroke="#F0F0F0" stroke-miterlimit="10" stroke-linecap="round"/>
    <path d="M8.81873 5C8.64654 5 8.48906 5.14636 8.5006 5.31818L8.65966 9.61368C8.65966 9.65587 8.67642 9.69634 8.70625 9.72617C8.73608 9.75601 8.77654 9.77277 8.81873 9.77277C8.86091 9.77277 8.90137 9.75601 8.9312 9.72617C8.96103 9.69634 8.97779 9.65587 8.97779 9.61368L9.13685 5.31818C9.14839 5.14636 8.99091 5 8.81873 5Z" stroke="#F0F0F0" stroke-width="0.636314" stroke-linecap="round" stroke-linejoin="round"/>
    <path d="M8.81843 12C8.99413 12 9.13656 11.8576 9.13656 11.6818C9.13656 11.5061 8.99413 11.3636 8.81843 11.3636C8.64274 11.3636 8.50031 11.5061 8.50031 11.6818C8.50031 11.8576 8.64274 12 8.81843 12Z" stroke="#F0F0F0" stroke-width="0.636314" stroke-linecap="round" stroke-linejoin="round"/>
</svg>
