<svg id="jfrog_research_icon" width="20" height="20" viewBox="0 0 20 20" fill="none" xmlns="http://www.w3.org/2000/svg">
    <path d="M11.8778 5.49936H10.1194V3.75918H11.8778V5.49936ZM16.3543 11.4957L13.2649 6.63084C13.1968 6.52399 13.1597 6.40105 13.1575 6.27516V3.75918H13.243C13.3308 3.76447 13.4188 3.75213 13.5016 3.72292C13.5844 3.6937 13.6602 3.64823 13.7243 3.5893C13.7884 3.53037 13.8395 3.45924 13.8744 3.38028C13.9093 3.30132 13.9274 3.21621 13.9274 3.13019C13.9274 3.04417 13.9093 2.95905 13.8744 2.8801C13.8395 2.80114 13.7884 2.73 13.7243 2.67108C13.6602 2.61215 13.5844 2.56668 13.5016 2.53746C13.4188 2.50824 13.3308 2.4959 13.243 2.50119H8.71763C8.62979 2.4959 8.54177 2.50824 8.45899 2.53746C8.37622 2.56668 8.30044 2.61215 8.23632 2.67108C8.1722 2.73 8.12111 2.80114 8.08618 2.8801C8.05125 2.95905 8.03324 3.04417 8.03324 3.13019C8.03324 3.21621 8.05125 3.30132 8.08618 3.38028C8.12111 3.45924 8.1722 3.53037 8.23632 3.5893C8.30044 3.64823 8.37622 3.6937 8.45899 3.72292C8.54177 3.75213 8.62979 3.76447 8.71763 3.75918H8.8031V6.27516C8.81249 6.40144 8.77714 6.52703 8.70298 6.63084L7.60889 8.32805C8.77597 8.48523 9.84561 9.04943 10.6207 9.91668C11.3957 10.7839 11.824 11.8958 11.8265 13.0473C11.8314 13.5233 11.7589 13.9971 11.6116 14.4509H14.679C15.0344 14.4513 15.3834 14.3582 15.6893 14.1814C15.9952 14.0046 16.2469 13.7505 16.4178 13.4459C16.5912 13.1464 16.677 12.8061 16.6658 12.4621C16.6546 12.1182 16.5468 11.7838 16.3543 11.4957Z" fill="#40BE46"/>
    <path d="M4.81577 13.0668C4.81577 12.6517 4.94173 12.2459 5.17772 11.9008C5.4137 11.5557 5.74911 11.2868 6.1415 11.128C6.5339 10.9693 6.96564 10.9279 7.38212 11.009C7.7986 11.0902 8.1811 11.2903 8.48121 11.584C8.78133 11.8776 8.98559 12.2517 9.06814 12.6589C9.1507 13.0661 9.10784 13.488 8.94499 13.8714C8.78214 14.2548 8.50661 14.5823 8.15327 14.8126C7.79994 15.0428 7.38466 15.1655 6.95999 15.165C6.39128 15.1638 5.84627 14.9422 5.44436 14.5489C5.04245 14.1556 4.81641 13.6227 4.81577 13.0668ZM9.98583 14.9955C10.3696 14.4215 10.578 13.7525 10.5866 13.0668C10.5866 12.3657 10.3739 11.6803 9.97541 11.0974C9.57691 10.5145 9.01051 10.0601 8.34783 9.79181C7.68516 9.52351 6.95597 9.45331 6.25247 9.59009C5.54898 9.72686 4.90278 10.0645 4.39559 10.5602C3.88839 11.056 3.54299 11.6876 3.40306 12.3752C3.26313 13.0629 3.33495 13.7756 3.60944 14.4233C3.88393 15.0711 4.34876 15.6247 4.94515 16.0142C5.54154 16.4037 6.24271 16.6116 6.95999 16.6116C7.66354 16.6166 8.35193 16.4118 8.93326 16.0244L10.8015 17.8481C10.9376 17.9813 11.1218 18.0567 11.3144 18.0582C11.4104 18.0595 11.5057 18.0416 11.5943 18.0055C11.683 17.9693 11.7631 17.9158 11.8297 17.8481C11.964 17.709 12.0388 17.525 12.0388 17.3337C12.0388 17.1424 11.964 16.9584 11.8297 16.8193L9.98583 14.9955Z" fill="#40BE46"/>
</svg>
