<svg width="16" height="16" viewBox="0 0 16 16" fill="none" xmlns="http://www.w3.org/2000/svg">
    <g clip-path="url(#clip0_1_1669)">
        <path d="M3.68478 5.93749C3.87271 6.12422 4.12688 6.22902 4.39181 6.22902C4.65674 6.22902 4.91091 6.12422 5.09884 5.93749L5.92916 5.10718C6.11606 4.91927 6.22097 4.66502 6.22097 4.39999C6.22097 4.13496 6.11606 3.88071 5.92916 3.6928L4.04978 1.81249C4.04606 1.80891 4.04329 1.80447 4.0417 1.79956C4.04012 1.79465 4.03978 1.78942 4.04071 1.78435C4.04164 1.77927 4.04381 1.77451 4.04703 1.77047C4.05024 1.76644 4.05441 1.76327 4.05916 1.76124C5.27228 1.24124 6.84509 1.50624 7.84384 2.4978C8.79947 3.44624 8.85384 4.8728 8.50384 6.1178C8.45411 6.29477 8.45424 6.48203 8.5042 6.65893C8.55416 6.83583 8.65201 6.9955 8.78697 7.1203L13.9932 11.875C14.1468 12.0112 14.2709 12.1773 14.358 12.3633C14.445 12.5492 14.493 12.751 14.4992 12.9562C14.5054 13.1614 14.4695 13.3656 14.3938 13.5565C14.3181 13.7473 14.2041 13.9206 14.059 14.0658C13.9138 14.2109 13.7405 14.3248 13.5497 14.4006C13.3589 14.4763 13.1546 14.5121 12.9494 14.506C12.7442 14.4998 12.5424 14.4517 12.3565 14.3647C12.1706 14.2777 12.0044 14.1536 11.8682 14L7.06009 8.78124C6.93687 8.64856 6.77987 8.55191 6.60591 8.50164C6.43195 8.45138 6.24759 8.44941 6.07259 8.49593C4.83697 8.82686 3.43072 8.76468 2.48759 7.83374C1.47228 6.83374 1.25322 5.06624 1.74541 4.05468C1.74762 4.05026 1.75086 4.04643 1.75484 4.0435C1.75883 4.04057 1.76345 4.03863 1.76833 4.03784C1.77321 4.03704 1.77821 4.03742 1.78292 4.03894C1.78762 4.04045 1.7919 4.04306 1.79541 4.04655L3.68478 5.93749Z" stroke="#8679E9" stroke-width="1.04" stroke-miterlimit="10" stroke-linecap="round"/>
    </g>
    <defs>
        <clipPath id="clip0_1_1669">
            <rect width="16" height="16" fill="white"/>
        </clipPath>
    </defs>
</svg>
