<svg width="107" height="20" viewBox="0 0 107 20" fill="none" xmlns="http://www.w3.org/2000/svg">
<rect x="0.5" y="0.5" width="106" height="19" rx="1.5" fill="white"/>
<rect x="0.5" y="0.5" width="106" height="19" rx="1.5" stroke="#C9D0E3"/>
<path d="M12.9238 15L10.457 7.8457H10.4043C10.416 8.00586 10.4297 8.22461 10.4453 8.50195C10.4609 8.7793 10.4746 9.07617 10.4863 9.39258C10.498 9.70898 10.5039 10.0117 10.5039 10.3008V15H9.22656V6.43359H11.2012L13.5742 13.2715H13.6094L16.0645 6.43359H18.0332V15H16.6914V10.2305C16.6914 9.96875 16.6953 9.68555 16.7031 9.38086C16.7148 9.07617 16.7266 8.78711 16.7383 8.51367C16.7539 8.24023 16.7656 8.02148 16.7734 7.85742H16.7266L14.166 15H12.9238ZM21.5254 8.51367V15H20.1484V8.51367H21.5254ZM20.8457 6.0293C21.0566 6.0293 21.2383 6.08594 21.3906 6.19922C21.5469 6.3125 21.625 6.50781 21.625 6.78516C21.625 7.05859 21.5469 7.25391 21.3906 7.37109C21.2383 7.48438 21.0566 7.54102 20.8457 7.54102C20.627 7.54102 20.4414 7.48438 20.2891 7.37109C20.1406 7.25391 20.0664 7.05859 20.0664 6.78516C20.0664 6.50781 20.1406 6.3125 20.2891 6.19922C20.4414 6.08594 20.627 6.0293 20.8457 6.0293ZM27.8594 13.1484C27.8594 13.5742 27.7559 13.9336 27.5488 14.2266C27.3418 14.5195 27.0391 14.7422 26.6406 14.8945C26.2461 15.043 25.7617 15.1172 25.1875 15.1172C24.7344 15.1172 24.3438 15.084 24.0156 15.0176C23.6914 14.9551 23.3848 14.8574 23.0957 14.7246V13.5352C23.4043 13.6797 23.75 13.8047 24.1328 13.9102C24.5195 14.0156 24.8848 14.0684 25.2285 14.0684C25.6816 14.0684 26.0078 13.998 26.207 13.8574C26.4062 13.7129 26.5059 13.5215 26.5059 13.2832C26.5059 13.1426 26.4648 13.0176 26.3828 12.9082C26.3047 12.7949 26.1562 12.6797 25.9375 12.5625C25.7227 12.4414 25.4062 12.2969 24.9883 12.1289C24.5781 11.9648 24.2324 11.8008 23.9512 11.6367C23.6699 11.4727 23.457 11.2754 23.3125 11.0449C23.168 10.8105 23.0957 10.5117 23.0957 10.1484C23.0957 9.57422 23.3223 9.13867 23.7754 8.8418C24.2324 8.54102 24.8359 8.39062 25.5859 8.39062C25.9844 8.39062 26.3594 8.43164 26.7109 8.51367C27.0664 8.5918 27.4141 8.70703 27.7539 8.85938L27.3203 9.89648C27.0273 9.76758 26.7324 9.66211 26.4355 9.58008C26.1426 9.49414 25.8438 9.45117 25.5391 9.45117C25.1836 9.45117 24.9121 9.50586 24.7246 9.61523C24.541 9.72461 24.4492 9.88086 24.4492 10.084C24.4492 10.2363 24.4941 10.3652 24.584 10.4707C24.6738 10.5762 24.8281 10.6816 25.0469 10.7871C25.2695 10.8926 25.5781 11.0234 25.9727 11.1797C26.3594 11.3281 26.6934 11.4844 26.9746 11.6484C27.2598 11.8086 27.4785 12.0059 27.6309 12.2402C27.7832 12.4746 27.8594 12.7773 27.8594 13.1484ZM33.707 13.1484C33.707 13.5742 33.6035 13.9336 33.3965 14.2266C33.1895 14.5195 32.8867 14.7422 32.4883 14.8945C32.0938 15.043 31.6094 15.1172 31.0352 15.1172C30.582 15.1172 30.1914 15.084 29.8633 15.0176C29.5391 14.9551 29.2324 14.8574 28.9434 14.7246V13.5352C29.252 13.6797 29.5977 13.8047 29.9805 13.9102C30.3672 14.0156 30.7324 14.0684 31.0762 14.0684C31.5293 14.0684 31.8555 13.998 32.0547 13.8574C32.2539 13.7129 32.3535 13.5215 32.3535 13.2832C32.3535 13.1426 32.3125 13.0176 32.2305 12.9082C32.1523 12.7949 32.0039 12.6797 31.7852 12.5625C31.5703 12.4414 31.2539 12.2969 30.8359 12.1289C30.4258 11.9648 30.0801 11.8008 29.7988 11.6367C29.5176 11.4727 29.3047 11.2754 29.1602 11.0449C29.0156 10.8105 28.9434 10.5117 28.9434 10.1484C28.9434 9.57422 29.1699 9.13867 29.623 8.8418C30.0801 8.54102 30.6836 8.39062 31.4336 8.39062C31.832 8.39062 32.207 8.43164 32.5586 8.51367C32.9141 8.5918 33.2617 8.70703 33.6016 8.85938L33.168 9.89648C32.875 9.76758 32.5801 9.66211 32.2832 9.58008C31.9902 9.49414 31.6914 9.45117 31.3867 9.45117C31.0312 9.45117 30.7598 9.50586 30.5723 9.61523C30.3887 9.72461 30.2969 9.88086 30.2969 10.084C30.2969 10.2363 30.3418 10.3652 30.4316 10.4707C30.5215 10.5762 30.6758 10.6816 30.8945 10.7871C31.1172 10.8926 31.4258 11.0234 31.8203 11.1797C32.207 11.3281 32.541 11.4844 32.8223 11.6484C33.1074 11.8086 33.3262 12.0059 33.4785 12.2402C33.6309 12.4746 33.707 12.7773 33.707 13.1484ZM36.5723 8.51367V15H35.1953V8.51367H36.5723ZM35.8926 6.0293C36.1035 6.0293 36.2852 6.08594 36.4375 6.19922C36.5938 6.3125 36.6719 6.50781 36.6719 6.78516C36.6719 7.05859 36.5938 7.25391 36.4375 7.37109C36.2852 7.48438 36.1035 7.54102 35.8926 7.54102C35.6738 7.54102 35.4883 7.48438 35.3359 7.37109C35.1875 7.25391 35.1133 7.05859 35.1133 6.78516C35.1133 6.50781 35.1875 6.3125 35.3359 6.19922C35.4883 6.08594 35.6738 6.0293 35.8926 6.0293ZM41.9277 8.39062C42.6582 8.39062 43.2266 8.58008 43.6328 8.95898C44.043 9.33398 44.248 9.9375 44.248 10.7695V15H42.8711V11.0273C42.8711 10.5234 42.7676 10.1465 42.5605 9.89648C42.3535 9.64258 42.0332 9.51562 41.5996 9.51562C40.9707 9.51562 40.5332 9.70898 40.2871 10.0957C40.0449 10.4824 39.9238 11.043 39.9238 11.7773V15H38.5469V8.51367H39.6191L39.8125 9.39258H39.8887C40.0293 9.16602 40.2031 8.98047 40.4102 8.83594C40.6211 8.6875 40.8555 8.57617 41.1133 8.50195C41.375 8.42773 41.6465 8.39062 41.9277 8.39062ZM48.0273 17.8828C47.1484 17.8828 46.4746 17.7246 46.0059 17.4082C45.5371 17.0918 45.3027 16.6484 45.3027 16.0781C45.3027 15.6797 45.4277 15.3418 45.6777 15.0645C45.9277 14.791 46.2852 14.6016 46.75 14.4961C46.5742 14.418 46.4219 14.2969 46.293 14.1328C46.168 13.9648 46.1055 13.7793 46.1055 13.5762C46.1055 13.334 46.1738 13.127 46.3105 12.9551C46.4473 12.7832 46.6523 12.6172 46.9258 12.457C46.5859 12.3125 46.3125 12.0781 46.1055 11.7539C45.9023 11.4258 45.8008 11.041 45.8008 10.5996C45.8008 10.1309 45.9004 9.73242 46.0996 9.4043C46.2988 9.07227 46.5898 8.82031 46.9727 8.64844C47.3555 8.47266 47.8184 8.38477 48.3613 8.38477C48.4785 8.38477 48.6055 8.39258 48.7422 8.4082C48.8828 8.41992 49.0117 8.43555 49.1289 8.45508C49.25 8.4707 49.3418 8.48828 49.4043 8.50781H51.6484V9.27539L50.5469 9.48047C50.6523 9.62891 50.7363 9.79883 50.7988 9.99023C50.8613 10.1777 50.8926 10.3828 50.8926 10.6055C50.8926 11.2773 50.6602 11.8066 50.1953 12.1934C49.7344 12.5762 49.0977 12.7676 48.2852 12.7676C48.0898 12.7598 47.9004 12.7441 47.7168 12.7207C47.5762 12.8066 47.4688 12.9023 47.3945 13.0078C47.3203 13.1094 47.2832 13.2246 47.2832 13.3535C47.2832 13.459 47.3203 13.5449 47.3945 13.6113C47.4688 13.6738 47.5781 13.7207 47.7227 13.752C47.8711 13.7832 48.0508 13.7988 48.2617 13.7988H49.3809C50.0918 13.7988 50.6348 13.9492 51.0098 14.25C51.3848 14.5508 51.5723 14.9922 51.5723 15.5742C51.5723 16.3125 51.2676 16.8809 50.6582 17.2793C50.0488 17.6816 49.1719 17.8828 48.0273 17.8828ZM48.0801 16.916C48.5605 16.916 48.9648 16.8691 49.293 16.7754C49.6211 16.6816 49.8691 16.5469 50.0371 16.3711C50.2051 16.1992 50.2891 15.9941 50.2891 15.7559C50.2891 15.5449 50.2363 15.3828 50.1309 15.2695C50.0254 15.1562 49.8672 15.0781 49.6562 15.0352C49.4453 14.9922 49.1836 14.9707 48.8711 14.9707H47.8516C47.5977 14.9707 47.373 15.0098 47.1777 15.0879C46.9824 15.1699 46.8301 15.2871 46.7207 15.4395C46.6152 15.5918 46.5625 15.7754 46.5625 15.9902C46.5625 16.2871 46.6934 16.5156 46.9551 16.6758C47.2207 16.8359 47.5957 16.916 48.0801 16.916ZM48.3496 11.8652C48.752 11.8652 49.0508 11.7559 49.2461 11.5371C49.4414 11.3145 49.5391 11.002 49.5391 10.5996C49.5391 10.1621 49.4375 9.83398 49.2344 9.61523C49.0352 9.39648 48.7383 9.28711 48.3438 9.28711C47.957 9.28711 47.6621 9.39844 47.459 9.62109C47.2598 9.84375 47.1602 10.1738 47.1602 10.6113C47.1602 11.0059 47.2598 11.3145 47.459 11.5371C47.6621 11.7559 47.959 11.8652 48.3496 11.8652ZM58.5625 15.1172C57.9492 15.1172 57.418 14.998 56.9688 14.7598C56.5195 14.5215 56.1738 14.1562 55.9316 13.6641C55.6895 13.1719 55.5684 12.5469 55.5684 11.7891C55.5684 11 55.7012 10.3555 55.9668 9.85547C56.2324 9.35547 56.5996 8.98633 57.0684 8.74805C57.541 8.50977 58.082 8.39062 58.6914 8.39062C59.0781 8.39062 59.4277 8.42969 59.7402 8.50781C60.0566 8.58203 60.3242 8.67383 60.543 8.7832L60.1328 9.88477C59.8945 9.78711 59.6504 9.70508 59.4004 9.63867C59.1504 9.57227 58.9102 9.53906 58.6797 9.53906C58.3008 9.53906 57.9844 9.62305 57.7305 9.79102C57.4805 9.95898 57.293 10.209 57.168 10.541C57.0469 10.873 56.9863 11.2852 56.9863 11.7773C56.9863 12.2539 57.0488 12.6562 57.1738 12.9844C57.2988 13.3086 57.4844 13.5547 57.7305 13.7227C57.9766 13.8867 58.2793 13.9688 58.6387 13.9688C58.9941 13.9688 59.3125 13.9258 59.5938 13.8398C59.875 13.7539 60.1406 13.6426 60.3906 13.5059V14.7012C60.1445 14.8418 59.8809 14.9453 59.5996 15.0117C59.3184 15.082 58.9727 15.1172 58.5625 15.1172ZM67.6562 11.7422C67.6562 12.2812 67.5859 12.7598 67.4453 13.1777C67.3047 13.5957 67.0996 13.9492 66.8301 14.2383C66.5605 14.5234 66.2363 14.7422 65.8574 14.8945C65.4785 15.043 65.0508 15.1172 64.5742 15.1172C64.1289 15.1172 63.7207 15.043 63.3496 14.8945C62.9785 14.7422 62.6562 14.5234 62.3828 14.2383C62.1133 13.9492 61.9043 13.5957 61.7559 13.1777C61.6074 12.7598 61.5332 12.2812 61.5332 11.7422C61.5332 11.0273 61.6562 10.4219 61.9023 9.92578C62.1523 9.42578 62.5078 9.04492 62.9688 8.7832C63.4297 8.52148 63.9785 8.39062 64.6152 8.39062C65.2129 8.39062 65.7402 8.52148 66.1973 8.7832C66.6543 9.04492 67.0117 9.42578 67.2695 9.92578C67.5273 10.4258 67.6562 11.0312 67.6562 11.7422ZM62.9512 11.7422C62.9512 12.2148 63.0078 12.6191 63.1211 12.9551C63.2383 13.291 63.418 13.5488 63.6602 13.7285C63.9023 13.9043 64.2148 13.9922 64.5977 13.9922C64.9805 13.9922 65.293 13.9043 65.5352 13.7285C65.7773 13.5488 65.9551 13.291 66.0684 12.9551C66.1816 12.6191 66.2383 12.2148 66.2383 11.7422C66.2383 11.2695 66.1816 10.8691 66.0684 10.541C65.9551 10.209 65.7773 9.95703 65.5352 9.78516C65.293 9.60938 64.9785 9.52148 64.5918 9.52148C64.0215 9.52148 63.6055 9.71289 63.3438 10.0957C63.082 10.4785 62.9512 11.0273 62.9512 11.7422ZM72.6191 8.39062C73.3496 8.39062 73.918 8.58008 74.3242 8.95898C74.7344 9.33398 74.9395 9.9375 74.9395 10.7695V15H73.5625V11.0273C73.5625 10.5234 73.459 10.1465 73.252 9.89648C73.0449 9.64258 72.7246 9.51562 72.291 9.51562C71.6621 9.51562 71.2246 9.70898 70.9785 10.0957C70.7363 10.4824 70.6152 11.043 70.6152 11.7773V15H69.2383V8.51367H70.3105L70.5039 9.39258H70.5801C70.7207 9.16602 70.8945 8.98047 71.1016 8.83594C71.3125 8.6875 71.5469 8.57617 71.8047 8.50195C72.0664 8.42773 72.3379 8.39062 72.6191 8.39062ZM79.2812 14.0039C79.4609 14.0039 79.6387 13.9883 79.8145 13.957C79.9902 13.9219 80.1504 13.8809 80.2949 13.834V14.877C80.1426 14.9434 79.9453 15 79.7031 15.0469C79.4609 15.0938 79.209 15.1172 78.9473 15.1172C78.5801 15.1172 78.25 15.0566 77.957 14.9355C77.6641 14.8105 77.4316 14.5977 77.2598 14.2969C77.0879 13.9961 77.002 13.5801 77.002 13.0488V9.5625H76.1172V8.94727L77.0664 8.46094L77.5176 7.07227H78.3848V8.51367H80.2422V9.5625H78.3848V13.0312C78.3848 13.3594 78.4668 13.6035 78.6309 13.7637C78.7949 13.9238 79.0117 14.0039 79.2812 14.0039ZM84.1973 8.39062C84.7754 8.39062 85.2715 8.50977 85.6855 8.74805C86.0996 8.98633 86.418 9.32422 86.6406 9.76172C86.8633 10.1992 86.9746 10.7227 86.9746 11.332V12.0703H82.6445C82.6602 12.6992 82.8281 13.1836 83.1484 13.5234C83.4727 13.8633 83.9258 14.0332 84.5078 14.0332C84.9219 14.0332 85.293 13.9941 85.6211 13.916C85.9531 13.834 86.2949 13.7148 86.6465 13.5586V14.6777C86.3223 14.8301 85.9922 14.9414 85.6562 15.0117C85.3203 15.082 84.918 15.1172 84.4492 15.1172C83.8125 15.1172 83.252 14.9941 82.7676 14.748C82.2871 14.498 81.9102 14.127 81.6367 13.6348C81.3672 13.1426 81.2324 12.5312 81.2324 11.8008C81.2324 11.0742 81.3555 10.457 81.6016 9.94922C81.8477 9.44141 82.1934 9.05469 82.6387 8.78906C83.084 8.52344 83.6035 8.39062 84.1973 8.39062ZM84.1973 9.42773C83.7637 9.42773 83.4121 9.56836 83.1426 9.84961C82.877 10.1309 82.7207 10.543 82.6738 11.0859H85.627C85.623 10.7617 85.5684 10.4746 85.4629 10.2246C85.3613 9.97461 85.2051 9.7793 84.9941 9.63867C84.7871 9.49805 84.5215 9.42773 84.1973 9.42773ZM89.9629 11.6836L87.7949 8.51367H89.3652L90.8477 10.793L92.3359 8.51367H93.9004L91.7207 11.6836L94.0117 15H92.4355L90.8477 12.5684L89.2539 15H87.6895L89.9629 11.6836ZM97.5508 14.0039C97.7305 14.0039 97.9082 13.9883 98.084 13.957C98.2598 13.9219 98.4199 13.8809 98.5645 13.834V14.877C98.4121 14.9434 98.2148 15 97.9727 15.0469C97.7305 15.0938 97.4785 15.1172 97.2168 15.1172C96.8496 15.1172 96.5195 15.0566 96.2266 14.9355C95.9336 14.8105 95.7012 14.5977 95.5293 14.2969C95.3574 13.9961 95.2715 13.5801 95.2715 13.0488V9.5625H94.3867V8.94727L95.3359 8.46094L95.7871 7.07227H96.6543V8.51367H98.5117V9.5625H96.6543V13.0312C96.6543 13.3594 96.7363 13.6035 96.9004 13.7637C97.0645 13.9238 97.2812 14.0039 97.5508 14.0039Z" fill="#414857"/>
</svg>
