<svg width="101" height="20" viewBox="0 0 101 20" fill="none" xmlns="http://www.w3.org/2000/svg">
<path d="M0 2C0 0.895431 0.895431 0 2 0H99C100.105 0 101 0.895431 101 2V18C101 19.1046 100.105 20 99 20H2C0.89543 20 0 19.1046 0 18V2Z" fill="#D2DFED"/>
<path d="M16.3516 15H14.623L10.4277 8.16211H10.375C10.3906 8.39258 10.4043 8.63672 10.416 8.89453C10.4316 9.15234 10.4434 9.41797 10.4512 9.69141C10.4629 9.96484 10.4727 10.2422 10.4805 10.5234V15H9.20312V6.43359H10.9199L15.1094 13.2246H15.1504C15.1426 13.0254 15.1328 12.7969 15.1211 12.5391C15.1094 12.2812 15.0977 12.0156 15.0859 11.7422C15.0781 11.4648 15.0723 11.1973 15.0684 10.9395V6.43359H16.3516V15ZM24.2031 11.7422C24.2031 12.2812 24.1328 12.7598 23.9922 13.1777C23.8516 13.5957 23.6465 13.9492 23.377 14.2383C23.1074 14.5234 22.7832 14.7422 22.4043 14.8945C22.0254 15.043 21.5977 15.1172 21.1211 15.1172C20.6758 15.1172 20.2676 15.043 19.8965 14.8945C19.5254 14.7422 19.2031 14.5234 18.9297 14.2383C18.6602 13.9492 18.4512 13.5957 18.3027 13.1777C18.1543 12.7598 18.0801 12.2812 18.0801 11.7422C18.0801 11.0273 18.2031 10.4219 18.4492 9.92578C18.6992 9.42578 19.0547 9.04492 19.5156 8.7832C19.9766 8.52148 20.5254 8.39062 21.1621 8.39062C21.7598 8.39062 22.2871 8.52148 22.7441 8.7832C23.2012 9.04492 23.5586 9.42578 23.8164 9.92578C24.0742 10.4258 24.2031 11.0312 24.2031 11.7422ZM19.498 11.7422C19.498 12.2148 19.5547 12.6191 19.668 12.9551C19.7852 13.291 19.9648 13.5488 20.207 13.7285C20.4492 13.9043 20.7617 13.9922 21.1445 13.9922C21.5273 13.9922 21.8398 13.9043 22.082 13.7285C22.3242 13.5488 22.502 13.291 22.6152 12.9551C22.7285 12.6191 22.7852 12.2148 22.7852 11.7422C22.7852 11.2695 22.7285 10.8691 22.6152 10.541C22.502 10.209 22.3242 9.95703 22.082 9.78516C21.8398 9.60938 21.5254 9.52148 21.1387 9.52148C20.5684 9.52148 20.1523 9.71289 19.8906 10.0957C19.6289 10.4785 19.498 11.0273 19.498 11.7422ZM28.1992 14.0039C28.3789 14.0039 28.5566 13.9883 28.7324 13.957C28.9082 13.9219 29.0684 13.8809 29.2129 13.834V14.877C29.0605 14.9434 28.8633 15 28.6211 15.0469C28.3789 15.0938 28.127 15.1172 27.8652 15.1172C27.498 15.1172 27.168 15.0566 26.875 14.9355C26.582 14.8105 26.3496 14.5977 26.1777 14.2969C26.0059 13.9961 25.9199 13.5801 25.9199 13.0488V9.5625H25.0352V8.94727L25.9844 8.46094L26.4355 7.07227H27.3027V8.51367H29.1602V9.5625H27.3027V13.0312C27.3027 13.3594 27.3848 13.6035 27.5488 13.7637C27.7129 13.9238 27.9297 14.0039 28.1992 14.0039ZM39.0977 15L38.2598 12.6211H34.9844L34.1465 15H32.6641L35.8516 6.39844H37.4102L40.5918 15H39.0977ZM37.8965 11.4141L37.082 9.07031C37.0508 8.96875 37.0059 8.82617 36.9473 8.64258C36.8887 8.45508 36.8301 8.26562 36.7715 8.07422C36.7129 7.87891 36.6641 7.71484 36.625 7.58203C36.5859 7.74219 36.5371 7.92188 36.4785 8.12109C36.4238 8.31641 36.3691 8.5 36.3145 8.67188C36.2637 8.84375 36.2246 8.97656 36.1973 9.07031L35.377 11.4141H37.8965ZM44.9102 8.39062C45.6797 8.39062 46.2969 8.67188 46.7617 9.23438C47.2305 9.79688 47.4648 10.6328 47.4648 11.7422C47.4648 12.4766 47.3555 13.0957 47.1367 13.5996C46.9219 14.0996 46.6191 14.4785 46.2285 14.7363C45.8418 14.9902 45.3906 15.1172 44.875 15.1172C44.5469 15.1172 44.2617 15.0742 44.0195 14.9883C43.7773 14.9023 43.5703 14.791 43.3984 14.6543C43.2266 14.5137 43.082 14.3613 42.9648 14.1973H42.8828C42.9023 14.3535 42.9199 14.5273 42.9355 14.7188C42.9551 14.9062 42.9648 15.0781 42.9648 15.2344V17.877H41.582V8.51367H42.707L42.9004 9.41016H42.9648C43.0859 9.22656 43.2324 9.05664 43.4043 8.90039C43.5801 8.74414 43.791 8.62109 44.0371 8.53125C44.2871 8.4375 44.5781 8.39062 44.9102 8.39062ZM44.541 9.51562C44.1621 9.51562 43.8574 9.5918 43.627 9.74414C43.4004 9.89258 43.2344 10.1172 43.1289 10.418C43.0273 10.7188 42.9727 11.0957 42.9648 11.5488V11.7422C42.9648 12.2227 43.0137 12.6309 43.1113 12.9668C43.2129 13.2988 43.3789 13.5527 43.6094 13.7285C43.8438 13.9004 44.1602 13.9863 44.5586 13.9863C44.8945 13.9863 45.1719 13.8945 45.3906 13.7109C45.6133 13.5273 45.7793 13.2656 45.8887 12.9258C45.998 12.5859 46.0527 12.1855 46.0527 11.7246C46.0527 11.0254 45.9277 10.4824 45.6777 10.0957C45.4316 9.70898 45.0527 9.51562 44.541 9.51562ZM52.3867 8.39062C53.1562 8.39062 53.7734 8.67188 54.2383 9.23438C54.707 9.79688 54.9414 10.6328 54.9414 11.7422C54.9414 12.4766 54.832 13.0957 54.6133 13.5996C54.3984 14.0996 54.0957 14.4785 53.7051 14.7363C53.3184 14.9902 52.8672 15.1172 52.3516 15.1172C52.0234 15.1172 51.7383 15.0742 51.4961 14.9883C51.2539 14.9023 51.0469 14.791 50.875 14.6543C50.7031 14.5137 50.5586 14.3613 50.4414 14.1973H50.3594C50.3789 14.3535 50.3965 14.5273 50.4121 14.7188C50.4316 14.9062 50.4414 15.0781 50.4414 15.2344V17.877H49.0586V8.51367H50.1836L50.377 9.41016H50.4414C50.5625 9.22656 50.709 9.05664 50.8809 8.90039C51.0566 8.74414 51.2676 8.62109 51.5137 8.53125C51.7637 8.4375 52.0547 8.39062 52.3867 8.39062ZM52.0176 9.51562C51.6387 9.51562 51.334 9.5918 51.1035 9.74414C50.877 9.89258 50.7109 10.1172 50.6055 10.418C50.5039 10.7188 50.4492 11.0957 50.4414 11.5488V11.7422C50.4414 12.2227 50.4902 12.6309 50.5879 12.9668C50.6895 13.2988 50.8555 13.5527 51.0859 13.7285C51.3203 13.9004 51.6367 13.9863 52.0352 13.9863C52.3711 13.9863 52.6484 13.8945 52.8672 13.7109C53.0898 13.5273 53.2559 13.2656 53.3652 12.9258C53.4746 12.5859 53.5293 12.1855 53.5293 11.7246C53.5293 11.0254 53.4043 10.4824 53.1543 10.0957C52.9082 9.70898 52.5293 9.51562 52.0176 9.51562ZM57.918 15H56.5352V5.88281H57.918V15ZM61.2637 8.51367V15H59.8867V8.51367H61.2637ZM60.584 6.0293C60.7949 6.0293 60.9766 6.08594 61.1289 6.19922C61.2852 6.3125 61.3633 6.50781 61.3633 6.78516C61.3633 7.05859 61.2852 7.25391 61.1289 7.37109C60.9766 7.48438 60.7949 7.54102 60.584 7.54102C60.3652 7.54102 60.1797 7.48438 60.0273 7.37109C59.8789 7.25391 59.8047 7.05859 59.8047 6.78516C59.8047 6.50781 59.8789 6.3125 60.0273 6.19922C60.1797 6.08594 60.3652 6.0293 60.584 6.0293ZM65.8516 15.1172C65.2383 15.1172 64.707 14.998 64.2578 14.7598C63.8086 14.5215 63.4629 14.1562 63.2207 13.6641C62.9785 13.1719 62.8574 12.5469 62.8574 11.7891C62.8574 11 62.9902 10.3555 63.2559 9.85547C63.5215 9.35547 63.8887 8.98633 64.3574 8.74805C64.8301 8.50977 65.3711 8.39062 65.9805 8.39062C66.3672 8.39062 66.7168 8.42969 67.0293 8.50781C67.3457 8.58203 67.6133 8.67383 67.832 8.7832L67.4219 9.88477C67.1836 9.78711 66.9395 9.70508 66.6895 9.63867C66.4395 9.57227 66.1992 9.53906 65.9688 9.53906C65.5898 9.53906 65.2734 9.62305 65.0195 9.79102C64.7695 9.95898 64.582 10.209 64.457 10.541C64.3359 10.873 64.2754 11.2852 64.2754 11.7773C64.2754 12.2539 64.3379 12.6562 64.4629 12.9844C64.5879 13.3086 64.7734 13.5547 65.0195 13.7227C65.2656 13.8867 65.5684 13.9688 65.9277 13.9688C66.2832 13.9688 66.6016 13.9258 66.8828 13.8398C67.1641 13.7539 67.4297 13.6426 67.6797 13.5059V14.7012C67.4336 14.8418 67.1699 14.9453 66.8887 15.0117C66.6074 15.082 66.2617 15.1172 65.8516 15.1172ZM71.7461 8.39062C72.5664 8.39062 73.1855 8.57227 73.6035 8.93555C74.0254 9.29883 74.2363 9.86523 74.2363 10.6348V15H73.2578L72.9941 14.0801H72.9473C72.7637 14.3145 72.5742 14.5078 72.3789 14.6602C72.1836 14.8125 71.957 14.9258 71.6992 15C71.4453 15.0781 71.1348 15.1172 70.7676 15.1172C70.3809 15.1172 70.0352 15.0469 69.7305 14.9062C69.4258 14.7617 69.1855 14.543 69.0098 14.25C68.834 13.957 68.7461 13.5859 68.7461 13.1367C68.7461 12.4688 68.9941 11.9668 69.4902 11.6309C69.9902 11.2949 70.7441 11.1094 71.752 11.0742L72.877 11.0332V10.6934C72.877 10.2441 72.7715 9.92383 72.5605 9.73242C72.3535 9.54102 72.0605 9.44531 71.6816 9.44531C71.3574 9.44531 71.043 9.49219 70.7383 9.58594C70.4336 9.67969 70.1367 9.79492 69.8477 9.93164L69.4023 8.95898C69.7188 8.79102 70.0781 8.6543 70.4805 8.54883C70.8867 8.44336 71.3086 8.39062 71.7461 8.39062ZM72.8711 11.9004L72.0332 11.9297C71.3457 11.9531 70.8633 12.0703 70.5859 12.2812C70.3086 12.4922 70.1699 12.7812 70.1699 13.1484C70.1699 13.4688 70.2656 13.7031 70.457 13.8516C70.6484 13.9961 70.9004 14.0684 71.2129 14.0684C71.6895 14.0684 72.084 13.9336 72.3965 13.6641C72.7129 13.3906 72.8711 12.9902 72.8711 12.4629V11.9004ZM77.541 5.88281V8.08008C77.541 8.33398 77.5332 8.58398 77.5176 8.83008C77.5059 9.07227 77.4941 9.26172 77.4824 9.39844H77.541C77.7168 9.11719 77.9609 8.88086 78.2734 8.68945C78.5898 8.49414 78.9941 8.39648 79.4863 8.39648C80.2559 8.39648 80.875 8.67969 81.3438 9.24609C81.8125 9.80859 82.0469 10.6426 82.0469 11.748C82.0469 12.4824 81.9395 13.0996 81.7246 13.5996C81.5098 14.0996 81.207 14.4785 80.8164 14.7363C80.4297 14.9902 79.9746 15.1172 79.4512 15.1172C78.959 15.1172 78.5605 15.0273 78.2559 14.8477C77.9551 14.6641 77.7188 14.4512 77.5469 14.209H77.4473L77.1953 15H76.1641V5.88281H77.541ZM79.123 9.51562C78.7324 9.51562 78.4219 9.59375 78.1914 9.75C77.9648 9.90625 77.8008 10.1406 77.6992 10.4531C77.5977 10.7617 77.5449 11.1543 77.541 11.6309V11.7539C77.541 12.4766 77.6543 13.0293 77.8809 13.4121C78.1113 13.7949 78.5293 13.9863 79.1348 13.9863C79.6152 13.9863 79.9844 13.793 80.2422 13.4062C80.5 13.0156 80.6289 12.457 80.6289 11.7305C80.6289 10.9961 80.5 10.4434 80.2422 10.0723C79.9883 9.70117 79.6152 9.51562 79.123 9.51562ZM85.0234 15H83.6406V5.88281H85.0234V15ZM89.5762 8.39062C90.1543 8.39062 90.6504 8.50977 91.0645 8.74805C91.4785 8.98633 91.7969 9.32422 92.0195 9.76172C92.2422 10.1992 92.3535 10.7227 92.3535 11.332V12.0703H88.0234C88.0391 12.6992 88.207 13.1836 88.5273 13.5234C88.8516 13.8633 89.3047 14.0332 89.8867 14.0332C90.3008 14.0332 90.6719 13.9941 91 13.916C91.332 13.834 91.6738 13.7148 92.0254 13.5586V14.6777C91.7012 14.8301 91.3711 14.9414 91.0352 15.0117C90.6992 15.082 90.2969 15.1172 89.8281 15.1172C89.1914 15.1172 88.6309 14.9941 88.1465 14.748C87.666 14.498 87.2891 14.127 87.0156 13.6348C86.7461 13.1426 86.6113 12.5312 86.6113 11.8008C86.6113 11.0742 86.7344 10.457 86.9805 9.94922C87.2266 9.44141 87.5723 9.05469 88.0176 8.78906C88.4629 8.52344 88.9824 8.39062 89.5762 8.39062ZM89.5762 9.42773C89.1426 9.42773 88.791 9.56836 88.5215 9.84961C88.2559 10.1309 88.0996 10.543 88.0527 11.0859H91.0059C91.002 10.7617 90.9473 10.4746 90.8418 10.2246C90.7402 9.97461 90.584 9.7793 90.373 9.63867C90.166 9.49805 89.9004 9.42773 89.5762 9.42773Z" fill="#414857"/>
</svg>
