<svg width="113" height="20" viewBox="0 0 113 20" fill="none" xmlns="http://www.w3.org/2000/svg">
    <rect width="113" height="20" rx="2" fill="#F4F4F4"/>
    <path d="M21.6465 14H19.7227L16.6172 8.59961H16.5732C16.5863 8.82422 16.5977 9.05046 16.6074 9.27832C16.6172 9.50618 16.627 9.73405 16.6367 9.96191C16.6465 10.1865 16.6562 10.4128 16.666 10.6406V14H15.3135V6.86133H17.2227L20.3232 12.208H20.3574C20.3509 11.9867 20.3428 11.7669 20.333 11.5488C20.3232 11.3307 20.3135 11.1126 20.3037 10.8945C20.2972 10.6764 20.2907 10.4583 20.2842 10.2402V6.86133H21.6465V14ZM29.9277 10.4209C29.9277 10.971 29.8594 11.4723 29.7227 11.9248C29.5859 12.374 29.3776 12.7614 29.0977 13.0869C28.821 13.4124 28.4694 13.6631 28.043 13.8389C27.6165 14.0114 27.112 14.0977 26.5293 14.0977C25.9466 14.0977 25.4421 14.0114 25.0156 13.8389C24.5892 13.6631 24.236 13.4124 23.9561 13.0869C23.6794 12.7614 23.4727 12.3724 23.3359 11.9199C23.1992 11.4674 23.1309 10.9645 23.1309 10.4111C23.1309 9.6722 23.2513 9.0293 23.4922 8.48242C23.7363 7.93229 24.1107 7.50586 24.6152 7.20312C25.1198 6.90039 25.7611 6.74902 26.5391 6.74902C27.3138 6.74902 27.9502 6.90039 28.4482 7.20312C28.9495 7.50586 29.3206 7.93229 29.5615 8.48242C29.8057 9.03255 29.9277 9.67871 29.9277 10.4209ZM24.7178 10.4209C24.7178 10.9189 24.7796 11.3486 24.9033 11.71C25.0303 12.068 25.2272 12.3447 25.4941 12.54C25.7611 12.7321 26.1061 12.8281 26.5293 12.8281C26.959 12.8281 27.3073 12.7321 27.5742 12.54C27.8411 12.3447 28.0348 12.068 28.1553 11.71C28.279 11.3486 28.3408 10.9189 28.3408 10.4209C28.3408 9.6722 28.2008 9.08301 27.9209 8.65332C27.641 8.22363 27.1803 8.00879 26.5391 8.00879C26.1126 8.00879 25.7643 8.10645 25.4941 8.30176C25.2272 8.49382 25.0303 8.77051 24.9033 9.13184C24.7796 9.48991 24.7178 9.9196 24.7178 10.4209ZM34.1611 14H32.6475V8.12109H30.709V6.86133H36.0996V8.12109H34.1611V14ZM44.166 14L43.6484 12.3008H41.0459L40.5283 14H38.8975L41.417 6.83203H43.2676L45.7969 14H44.166ZM43.2871 11.0312L42.7695 9.37109C42.737 9.26042 42.693 9.11882 42.6377 8.94629C42.5856 8.77051 42.5319 8.5931 42.4766 8.41406C42.4245 8.23177 42.3822 8.07389 42.3496 7.94043C42.3171 8.07389 42.2715 8.23991 42.2129 8.43848C42.1576 8.63379 42.1038 8.81934 42.0518 8.99512C41.9997 9.1709 41.9622 9.29622 41.9395 9.37109L41.4268 11.0312H43.2871ZM48.9805 6.86133C49.9017 6.86133 50.5739 7.0599 50.9971 7.45703C51.4202 7.85091 51.6318 8.39453 51.6318 9.08789C51.6318 9.40039 51.5846 9.69987 51.4902 9.98633C51.3958 10.2695 51.2412 10.5218 51.0264 10.7432C50.8148 10.9645 50.5316 11.1403 50.1768 11.2705C49.8219 11.3975 49.3841 11.4609 48.8633 11.4609H48.2139V14H46.7002V6.86133H48.9805ZM48.9023 8.10156H48.2139V10.2207H48.7119C48.9951 10.2207 49.2409 10.1833 49.4492 10.1084C49.6576 10.0335 49.8187 9.91634 49.9326 9.75684C50.0465 9.59733 50.1035 9.39225 50.1035 9.1416C50.1035 8.79004 50.0059 8.52962 49.8105 8.36035C49.6152 8.18783 49.3125 8.10156 48.9023 8.10156ZM55.2598 6.86133C56.181 6.86133 56.8532 7.0599 57.2764 7.45703C57.6995 7.85091 57.9111 8.39453 57.9111 9.08789C57.9111 9.40039 57.8639 9.69987 57.7695 9.98633C57.6751 10.2695 57.5205 10.5218 57.3057 10.7432C57.0941 10.9645 56.8109 11.1403 56.4561 11.2705C56.1012 11.3975 55.6634 11.4609 55.1426 11.4609H54.4932V14H52.9795V6.86133H55.2598ZM55.1816 8.10156H54.4932V10.2207H54.9912C55.2744 10.2207 55.5202 10.1833 55.7285 10.1084C55.9368 10.0335 56.098 9.91634 56.2119 9.75684C56.3258 9.59733 56.3828 9.39225 56.3828 9.1416C56.3828 8.79004 56.2852 8.52962 56.0898 8.36035C55.8945 8.18783 55.5918 8.10156 55.1816 8.10156ZM59.2588 14V6.86133H60.7725V12.75H63.668V14H59.2588ZM64.9131 14V6.86133H66.4268V14H64.9131ZM71.2559 8.01855C70.9661 8.01855 70.709 8.07552 70.4844 8.18945C70.263 8.30013 70.0758 8.46126 69.9229 8.67285C69.7731 8.88444 69.6592 9.13997 69.5811 9.43945C69.5029 9.73893 69.4639 10.0758 69.4639 10.4502C69.4639 10.9548 69.5257 11.3861 69.6494 11.7441C69.7764 12.099 69.9717 12.3708 70.2354 12.5596C70.499 12.7451 70.8392 12.8379 71.2559 12.8379C71.5456 12.8379 71.8353 12.8053 72.125 12.7402C72.418 12.6751 72.7354 12.5824 73.0771 12.4619V13.7314C72.7614 13.8617 72.4505 13.9544 72.1445 14.0098C71.8385 14.0684 71.4951 14.0977 71.1143 14.0977C70.3786 14.0977 69.7731 13.9463 69.2979 13.6436C68.8258 13.3376 68.4759 12.9111 68.248 12.3643C68.0202 11.8141 67.9062 11.1729 67.9062 10.4404C67.9062 9.90007 67.9795 9.40527 68.126 8.95605C68.2725 8.50684 68.4873 8.11784 68.7705 7.78906C69.0537 7.46029 69.4036 7.20638 69.8203 7.02734C70.237 6.84831 70.7155 6.75879 71.2559 6.75879C71.6107 6.75879 71.9655 6.80436 72.3203 6.89551C72.6784 6.9834 73.0202 7.10547 73.3457 7.26172L72.8574 8.49219C72.5905 8.36523 72.3219 8.25456 72.0518 8.16016C71.7816 8.06576 71.5163 8.01855 71.2559 8.01855ZM78.9707 14L78.4531 12.3008H75.8506L75.333 14H73.7021L76.2217 6.83203H78.0723L80.6016 14H78.9707ZM78.0918 11.0312L77.5742 9.37109C77.5417 9.26042 77.4977 9.11882 77.4424 8.94629C77.3903 8.77051 77.3366 8.5931 77.2812 8.41406C77.2292 8.23177 77.1868 8.07389 77.1543 7.94043C77.1217 8.07389 77.0762 8.23991 77.0176 8.43848C76.9622 8.63379 76.9085 8.81934 76.8564 8.99512C76.8044 9.1709 76.7669 9.29622 76.7441 9.37109L76.2314 11.0312H78.0918ZM81.5049 6.86133H83.7266C84.6771 6.86133 85.3965 6.99479 85.8848 7.26172C86.373 7.52865 86.6172 7.9974 86.6172 8.66797C86.6172 8.93815 86.5732 9.18229 86.4854 9.40039C86.4007 9.61849 86.277 9.79753 86.1143 9.9375C85.9515 10.0775 85.7529 10.1686 85.5186 10.2109V10.2598C85.7562 10.3086 85.971 10.3932 86.1631 10.5137C86.3551 10.6309 86.5081 10.8034 86.6221 11.0312C86.7393 11.2559 86.7979 11.5553 86.7979 11.9297C86.7979 12.3626 86.6921 12.7337 86.4805 13.043C86.2689 13.3522 85.9661 13.5898 85.5723 13.7559C85.1816 13.9186 84.7161 14 84.1758 14H81.5049V6.86133ZM83.0186 9.68848H83.8975C84.3369 9.68848 84.6413 9.62012 84.8105 9.4834C84.9798 9.34342 85.0645 9.13835 85.0645 8.86816C85.0645 8.59473 84.9635 8.39941 84.7617 8.28223C84.5632 8.16178 84.2474 8.10156 83.8145 8.10156H83.0186V9.68848ZM83.0186 10.8896V12.75H84.0049C84.4606 12.75 84.778 12.6621 84.957 12.4863C85.1361 12.3105 85.2256 12.0745 85.2256 11.7783C85.2256 11.6025 85.1865 11.4479 85.1084 11.3145C85.0303 11.181 84.8984 11.0768 84.7129 11.002C84.5306 10.9271 84.2783 10.8896 83.9561 10.8896H83.0186ZM88.2236 14V6.86133H89.7373V12.75H92.6328V14H88.2236ZM97.9893 14H93.8779V6.86133H97.9893V8.10156H95.3916V9.66895H97.8086V10.9092H95.3916V12.75H97.9893V14Z" fill="#999DB4"/>
</svg>
