<svg width="89" height="20" viewBox="0 0 89 20" fill="none" xmlns="http://www.w3.org/2000/svg">
<rect x="0.5" y="0.5" width="88" height="19" rx="1.5" fill="white"/>
<rect x="0.5" y="0.5" width="88" height="19" rx="1.5" stroke="#C9D0E3"/>
<path d="M16.5684 15H14.8398L10.6445 8.16211H10.5918C10.6074 8.39258 10.6211 8.63672 10.6328 8.89453C10.6484 9.15234 10.6602 9.41797 10.668 9.69141C10.6797 9.96484 10.6895 10.2422 10.6973 10.5234V15H9.41992V6.43359H11.1367L15.3262 13.2246H15.3672C15.3594 13.0254 15.3496 12.7969 15.3379 12.5391C15.3262 12.2812 15.3145 12.0156 15.3027 11.7422C15.2949 11.4648 15.2891 11.1973 15.2852 10.9395V6.43359H16.5684V15ZM24.4199 11.7422C24.4199 12.2812 24.3496 12.7598 24.209 13.1777C24.0684 13.5957 23.8633 13.9492 23.5938 14.2383C23.3242 14.5234 23 14.7422 22.6211 14.8945C22.2422 15.043 21.8145 15.1172 21.3379 15.1172C20.8926 15.1172 20.4844 15.043 20.1133 14.8945C19.7422 14.7422 19.4199 14.5234 19.1465 14.2383C18.877 13.9492 18.668 13.5957 18.5195 13.1777C18.3711 12.7598 18.2969 12.2812 18.2969 11.7422C18.2969 11.0273 18.4199 10.4219 18.666 9.92578C18.916 9.42578 19.2715 9.04492 19.7324 8.7832C20.1934 8.52148 20.7422 8.39062 21.3789 8.39062C21.9766 8.39062 22.5039 8.52148 22.9609 8.7832C23.418 9.04492 23.7754 9.42578 24.0332 9.92578C24.291 10.4258 24.4199 11.0312 24.4199 11.7422ZM19.7148 11.7422C19.7148 12.2148 19.7715 12.6191 19.8848 12.9551C20.002 13.291 20.1816 13.5488 20.4238 13.7285C20.666 13.9043 20.9785 13.9922 21.3613 13.9922C21.7441 13.9922 22.0566 13.9043 22.2988 13.7285C22.541 13.5488 22.7188 13.291 22.832 12.9551C22.9453 12.6191 23.002 12.2148 23.002 11.7422C23.002 11.2695 22.9453 10.8691 22.832 10.541C22.7188 10.209 22.541 9.95703 22.2988 9.78516C22.0566 9.60938 21.7422 9.52148 21.3555 9.52148C20.7852 9.52148 20.3691 9.71289 20.1074 10.0957C19.8457 10.4785 19.7148 11.0273 19.7148 11.7422ZM28.416 14.0039C28.5957 14.0039 28.7734 13.9883 28.9492 13.957C29.125 13.9219 29.2852 13.8809 29.4297 13.834V14.877C29.2773 14.9434 29.0801 15 28.8379 15.0469C28.5957 15.0938 28.3438 15.1172 28.082 15.1172C27.7148 15.1172 27.3848 15.0566 27.0918 14.9355C26.7988 14.8105 26.5664 14.5977 26.3945 14.2969C26.2227 13.9961 26.1367 13.5801 26.1367 13.0488V9.5625H25.252V8.94727L26.2012 8.46094L26.6523 7.07227H27.5195V8.51367H29.377V9.5625H27.5195V13.0312C27.5195 13.3594 27.6016 13.6035 27.7656 13.7637C27.9297 13.9238 28.1465 14.0039 28.416 14.0039ZM37.6562 7.50586C37.2461 7.50586 36.8789 7.58008 36.5547 7.72852C36.2344 7.87695 35.9629 8.0918 35.7402 8.37305C35.5176 8.65039 35.3477 8.98828 35.2305 9.38672C35.1133 9.78125 35.0547 10.2266 35.0547 10.7227C35.0547 11.3867 35.1484 11.959 35.3359 12.4395C35.5234 12.916 35.8086 13.2832 36.1914 13.541C36.5742 13.7949 37.0586 13.9219 37.6445 13.9219C38.0078 13.9219 38.3613 13.8867 38.7051 13.8164C39.0488 13.7461 39.4043 13.6504 39.7715 13.5293V14.7246C39.4238 14.8613 39.0723 14.9609 38.7168 15.0234C38.3613 15.0859 37.9512 15.1172 37.4863 15.1172C36.6113 15.1172 35.8848 14.9355 35.3066 14.5723C34.7324 14.209 34.3027 13.6973 34.0176 13.0371C33.7363 12.377 33.5957 11.6035 33.5957 10.7168C33.5957 10.0684 33.6855 9.47461 33.8652 8.93555C34.0449 8.39648 34.3066 7.93164 34.6504 7.54102C34.9941 7.14648 35.418 6.84375 35.9219 6.63281C36.4297 6.41797 37.0098 6.31055 37.6621 6.31055C38.0918 6.31055 38.5137 6.35938 38.9277 6.45703C39.3457 6.55078 39.7324 6.68555 40.0879 6.86133L39.5957 8.02148C39.2988 7.88086 38.9883 7.75977 38.6641 7.6582C38.3398 7.55664 38.0039 7.50586 37.6562 7.50586ZM47.2129 11.7422C47.2129 12.2812 47.1426 12.7598 47.002 13.1777C46.8613 13.5957 46.6562 13.9492 46.3867 14.2383C46.1172 14.5234 45.793 14.7422 45.4141 14.8945C45.0352 15.043 44.6074 15.1172 44.1309 15.1172C43.6855 15.1172 43.2773 15.043 42.9062 14.8945C42.5352 14.7422 42.2129 14.5234 41.9395 14.2383C41.6699 13.9492 41.4609 13.5957 41.3125 13.1777C41.1641 12.7598 41.0898 12.2812 41.0898 11.7422C41.0898 11.0273 41.2129 10.4219 41.459 9.92578C41.709 9.42578 42.0645 9.04492 42.5254 8.7832C42.9863 8.52148 43.5352 8.39062 44.1719 8.39062C44.7695 8.39062 45.2969 8.52148 45.7539 8.7832C46.2109 9.04492 46.5684 9.42578 46.8262 9.92578C47.084 10.4258 47.2129 11.0312 47.2129 11.7422ZM42.5078 11.7422C42.5078 12.2148 42.5645 12.6191 42.6777 12.9551C42.7949 13.291 42.9746 13.5488 43.2168 13.7285C43.459 13.9043 43.7715 13.9922 44.1543 13.9922C44.5371 13.9922 44.8496 13.9043 45.0918 13.7285C45.334 13.5488 45.5117 13.291 45.625 12.9551C45.7383 12.6191 45.7949 12.2148 45.7949 11.7422C45.7949 11.2695 45.7383 10.8691 45.625 10.541C45.5117 10.209 45.334 9.95703 45.0918 9.78516C44.8496 9.60938 44.5352 9.52148 44.1484 9.52148C43.5781 9.52148 43.1621 9.71289 42.9004 10.0957C42.6387 10.4785 42.5078 11.0273 42.5078 11.7422ZM50.2773 15L47.8105 8.51367H49.2695L50.6055 12.3223C50.6914 12.5645 50.7695 12.8262 50.8398 13.1074C50.9102 13.3887 50.959 13.625 50.9863 13.8164H51.0332C51.0605 13.6172 51.1133 13.3789 51.1914 13.1016C51.2695 12.8203 51.3496 12.5605 51.4316 12.3223L52.7676 8.51367H54.2207L51.7539 15H50.2773ZM57.7891 8.39062C58.3672 8.39062 58.8633 8.50977 59.2773 8.74805C59.6914 8.98633 60.0098 9.32422 60.2324 9.76172C60.4551 10.1992 60.5664 10.7227 60.5664 11.332V12.0703H56.2363C56.252 12.6992 56.4199 13.1836 56.7402 13.5234C57.0645 13.8633 57.5176 14.0332 58.0996 14.0332C58.5137 14.0332 58.8848 13.9941 59.2129 13.916C59.5449 13.834 59.8867 13.7148 60.2383 13.5586V14.6777C59.9141 14.8301 59.584 14.9414 59.248 15.0117C58.9121 15.082 58.5098 15.1172 58.041 15.1172C57.4043 15.1172 56.8438 14.9941 56.3594 14.748C55.8789 14.498 55.502 14.127 55.2285 13.6348C54.959 13.1426 54.8242 12.5312 54.8242 11.8008C54.8242 11.0742 54.9473 10.457 55.1934 9.94922C55.4395 9.44141 55.7852 9.05469 56.2305 8.78906C56.6758 8.52344 57.1953 8.39062 57.7891 8.39062ZM57.7891 9.42773C57.3555 9.42773 57.0039 9.56836 56.7344 9.84961C56.4688 10.1309 56.3125 10.543 56.2656 11.0859H59.2188C59.2148 10.7617 59.1602 10.4746 59.0547 10.2246C58.9531 9.97461 58.7969 9.7793 58.5859 9.63867C58.3789 9.49805 58.1133 9.42773 57.7891 9.42773ZM65.4062 8.39062C65.5156 8.39062 65.6348 8.39648 65.7637 8.4082C65.8926 8.41992 66.0039 8.43555 66.0977 8.45508L65.9688 9.74414C65.8867 9.7207 65.7852 9.70312 65.6641 9.69141C65.5469 9.67969 65.4414 9.67383 65.3477 9.67383C65.1016 9.67383 64.8672 9.71484 64.6445 9.79688C64.4219 9.875 64.2246 9.99609 64.0527 10.1602C63.8809 10.3203 63.7461 10.5215 63.6484 10.7637C63.5508 11.0059 63.502 11.2871 63.502 11.6074V15H62.1191V8.51367H63.1973L63.3848 9.65625H63.4492C63.5781 9.42578 63.7383 9.21484 63.9297 9.02344C64.1211 8.83203 64.3398 8.67969 64.5859 8.56641C64.8359 8.44922 65.1094 8.39062 65.4062 8.39062ZM69.8828 8.39062C70.4609 8.39062 70.957 8.50977 71.3711 8.74805C71.7852 8.98633 72.1035 9.32422 72.3262 9.76172C72.5488 10.1992 72.6602 10.7227 72.6602 11.332V12.0703H68.3301C68.3457 12.6992 68.5137 13.1836 68.834 13.5234C69.1582 13.8633 69.6113 14.0332 70.1934 14.0332C70.6074 14.0332 70.9785 13.9941 71.3066 13.916C71.6387 13.834 71.9805 13.7148 72.332 13.5586V14.6777C72.0078 14.8301 71.6777 14.9414 71.3418 15.0117C71.0059 15.082 70.6035 15.1172 70.1348 15.1172C69.498 15.1172 68.9375 14.9941 68.4531 14.748C67.9727 14.498 67.5957 14.127 67.3223 13.6348C67.0527 13.1426 66.918 12.5312 66.918 11.8008C66.918 11.0742 67.041 10.457 67.2871 9.94922C67.5332 9.44141 67.8789 9.05469 68.3242 8.78906C68.7695 8.52344 69.2891 8.39062 69.8828 8.39062ZM69.8828 9.42773C69.4492 9.42773 69.0977 9.56836 68.8281 9.84961C68.5625 10.1309 68.4062 10.543 68.3594 11.0859H71.3125C71.3086 10.7617 71.2539 10.4746 71.1484 10.2246C71.0469 9.97461 70.8906 9.7793 70.6797 9.63867C70.4727 9.49805 70.207 9.42773 69.8828 9.42773ZM76.3926 15.1172C75.6191 15.1172 74.998 14.8359 74.5293 14.2734C74.0645 13.707 73.832 12.873 73.832 11.7715C73.832 10.6582 74.0684 9.81641 74.541 9.24609C75.0176 8.67578 75.6445 8.39062 76.4219 8.39062C76.75 8.39062 77.0371 8.43555 77.2832 8.52539C77.5293 8.61133 77.7402 8.72852 77.916 8.87695C78.0957 9.02539 78.248 9.19141 78.373 9.375H78.4375C78.418 9.25391 78.3945 9.08008 78.3672 8.85352C78.3438 8.62305 78.332 8.41016 78.332 8.21484V5.88281H79.7148V15H78.6367L78.3906 14.1152H78.332C78.2148 14.3027 78.0664 14.4727 77.8867 14.625C77.7109 14.7734 77.5 14.8926 77.2539 14.9824C77.0117 15.0723 76.7246 15.1172 76.3926 15.1172ZM76.7793 13.998C77.3691 13.998 77.7852 13.8281 78.0273 13.4883C78.2695 13.1484 78.3945 12.6387 78.4023 11.959V11.7773C78.4023 11.0508 78.2852 10.4941 78.0508 10.1074C77.8164 9.7168 77.3887 9.52148 76.7676 9.52148C76.2715 9.52148 75.8926 9.72266 75.6309 10.125C75.373 10.5234 75.2441 11.0801 75.2441 11.7949C75.2441 12.5098 75.373 13.0566 75.6309 13.4355C75.8926 13.8105 76.2754 13.998 76.7793 13.998Z" fill="#414857"/>
</svg>
