<svg width="94" height="20" viewBox="0 0 94 20" fill="none" xmlns="http://www.w3.org/2000/svg">
    <rect x="0.5" y="0.5" width="93" height="19" rx="1.5" fill="#F1F3F8"/>
    <path d="M12.9277 14H11.4873L7.99121 8.30176H7.94727C7.96029 8.49382 7.97168 8.69727 7.98145 8.91211C7.99447 9.12695 8.00423 9.34831 8.01074 9.57617C8.02051 9.80404 8.02865 10.0352 8.03516 10.2695V14H6.9707V6.86133H8.40137L11.8926 12.5205H11.9268C11.9202 12.3545 11.9121 12.1641 11.9023 11.9492C11.8926 11.7344 11.8828 11.513 11.873 11.2852C11.8665 11.054 11.8617 10.8311 11.8584 10.6162V6.86133H12.9277V14ZM21.1406 10.4209C21.1406 10.971 21.0706 11.4723 20.9307 11.9248C20.7939 12.374 20.5872 12.7614 20.3105 13.0869C20.0339 13.4092 19.6872 13.6582 19.2705 13.834C18.8538 14.0098 18.3656 14.0977 17.8057 14.0977C17.236 14.0977 16.7412 14.0098 16.3213 13.834C15.9046 13.6582 15.5579 13.4076 15.2812 13.082C15.0078 12.7565 14.8027 12.3675 14.666 11.915C14.5293 11.4626 14.4609 10.9613 14.4609 10.4111C14.4609 9.67546 14.5814 9.03418 14.8223 8.4873C15.0664 7.93717 15.4359 7.51074 15.9307 7.20801C16.4287 6.90202 17.057 6.74902 17.8154 6.74902C18.5576 6.74902 19.1745 6.90039 19.666 7.20312C20.1576 7.50586 20.5254 7.93229 20.7695 8.48242C21.0169 9.0293 21.1406 9.67546 21.1406 10.4209ZM15.6914 10.4209C15.6914 10.971 15.7663 11.4479 15.916 11.8516C16.0658 12.252 16.2952 12.5612 16.6045 12.7793C16.917 12.9941 17.3174 13.1016 17.8057 13.1016C18.2972 13.1016 18.6976 12.9941 19.0068 12.7793C19.3161 12.5612 19.5439 12.252 19.6904 11.8516C19.8369 11.4479 19.9102 10.971 19.9102 10.4209C19.9102 9.58431 19.7425 8.93001 19.4072 8.45801C19.0752 7.98275 18.5446 7.74512 17.8154 7.74512C17.3271 7.74512 16.9251 7.85254 16.6094 8.06738C16.2969 8.28223 16.0658 8.58984 15.916 8.99023C15.7663 9.38737 15.6914 9.86426 15.6914 10.4209ZM25.1494 14H23.9727V7.85742H21.8828V6.86133H27.2344V7.85742H25.1494V14ZM35.3496 14L34.6514 12.0176H31.9219L31.2236 14H29.9883L32.6445 6.83203H33.9434L36.5947 14H35.3496ZM34.3486 11.0117L33.6699 9.05859C33.6439 8.97396 33.6064 8.85514 33.5576 8.70215C33.5088 8.5459 33.46 8.38802 33.4111 8.22852C33.3623 8.06576 33.3216 7.92904 33.2891 7.81836C33.2565 7.95182 33.2158 8.10156 33.167 8.26758C33.1214 8.43034 33.0758 8.58333 33.0303 8.72656C32.988 8.86979 32.9554 8.98047 32.9326 9.05859L32.249 11.0117H34.3486ZM39.6123 6.86133C40.5335 6.86133 41.2057 7.05013 41.6289 7.42773C42.0521 7.80534 42.2637 8.33431 42.2637 9.01465C42.2637 9.32389 42.2148 9.61849 42.1172 9.89844C42.0228 10.1751 41.8665 10.4209 41.6484 10.6357C41.4303 10.8473 41.1423 11.015 40.7842 11.1387C40.4294 11.2624 39.9915 11.3242 39.4707 11.3242H38.709V14H37.5371V6.86133H39.6123ZM39.5342 7.83301H38.709V10.3477H39.3486C39.7165 10.3477 40.029 10.3053 40.2861 10.2207C40.5433 10.1328 40.7386 9.99447 40.8721 9.80566C41.0055 9.61686 41.0723 9.36784 41.0723 9.05859C41.0723 8.64518 40.9469 8.33757 40.6963 8.13574C40.4489 7.93392 40.0615 7.83301 39.5342 7.83301ZM45.7646 6.86133C46.6859 6.86133 47.3581 7.05013 47.7812 7.42773C48.2044 7.80534 48.416 8.33431 48.416 9.01465C48.416 9.32389 48.3672 9.61849 48.2695 9.89844C48.1751 10.1751 48.0189 10.4209 47.8008 10.6357C47.5827 10.8473 47.2946 11.015 46.9365 11.1387C46.5817 11.2624 46.1439 11.3242 45.623 11.3242H44.8613V14H43.6895V6.86133H45.7646ZM45.6865 7.83301H44.8613V10.3477H45.501C45.8688 10.3477 46.1813 10.3053 46.4385 10.2207C46.6956 10.1328 46.891 9.99447 47.0244 9.80566C47.1579 9.61686 47.2246 9.36784 47.2246 9.05859C47.2246 8.64518 47.0993 8.33757 46.8486 8.13574C46.6012 7.93392 46.2139 7.83301 45.6865 7.83301ZM49.8418 14V6.86133H51.0137V13.0039H54.0459V14H49.8418ZM55.2812 14V6.86133H56.4531V14H55.2812ZM61.3799 7.75488C61.0381 7.75488 60.7321 7.81673 60.4619 7.94043C60.195 8.06413 59.9688 8.24316 59.7832 8.47754C59.5977 8.70866 59.4561 8.99023 59.3584 9.32227C59.2607 9.65104 59.2119 10.0221 59.2119 10.4355C59.2119 10.9889 59.29 11.4658 59.4463 11.8662C59.6025 12.2633 59.8402 12.5693 60.1592 12.7842C60.4782 12.9958 60.8818 13.1016 61.3701 13.1016C61.6729 13.1016 61.9674 13.0723 62.2539 13.0137C62.5404 12.9551 62.8366 12.8753 63.1426 12.7744V13.7705C62.8529 13.8844 62.5599 13.9674 62.2637 14.0195C61.9674 14.0716 61.6257 14.0977 61.2383 14.0977C60.5091 14.0977 59.9036 13.9463 59.4219 13.6436C58.9434 13.3408 58.5853 12.9144 58.3477 12.3643C58.1133 11.8141 57.9961 11.1696 57.9961 10.4307C57.9961 9.8903 58.071 9.39551 58.2207 8.94629C58.3704 8.49707 58.5885 8.1097 58.875 7.78418C59.1615 7.4554 59.5146 7.20312 59.9346 7.02734C60.3577 6.84831 60.8411 6.75879 61.3848 6.75879C61.7428 6.75879 62.0944 6.79948 62.4395 6.88086C62.7878 6.95898 63.11 7.07129 63.4062 7.21777L62.9961 8.18457C62.7487 8.06738 62.4899 7.96647 62.2197 7.88184C61.9495 7.7972 61.6696 7.75488 61.3799 7.75488ZM69.0996 14L68.4014 12.0176H65.6719L64.9736 14H63.7383L66.3945 6.83203H67.6934L70.3447 14H69.0996ZM68.0986 11.0117L67.4199 9.05859C67.3939 8.97396 67.3564 8.85514 67.3076 8.70215C67.2588 8.5459 67.21 8.38802 67.1611 8.22852C67.1123 8.06576 67.0716 7.92904 67.0391 7.81836C67.0065 7.95182 66.9658 8.10156 66.917 8.26758C66.8714 8.43034 66.8258 8.58333 66.7803 8.72656C66.738 8.86979 66.7054 8.98047 66.6826 9.05859L65.999 11.0117H68.0986ZM71.2871 6.86133H73.4111C74.3324 6.86133 75.0273 6.99479 75.4961 7.26172C75.9648 7.52865 76.1992 7.98926 76.1992 8.64355C76.1992 8.91699 76.1504 9.16439 76.0527 9.38574C75.9583 9.60384 75.82 9.78451 75.6377 9.92773C75.4554 10.0677 75.2308 10.1621 74.9639 10.2109V10.2598C75.2406 10.3086 75.4863 10.3949 75.7012 10.5186C75.9193 10.6423 76.0902 10.8197 76.2139 11.0508C76.3408 11.2819 76.4043 11.5814 76.4043 11.9492C76.4043 12.3854 76.3001 12.7565 76.0918 13.0625C75.8867 13.3685 75.5921 13.6012 75.208 13.7607C74.8271 13.9202 74.3747 14 73.8506 14H71.2871V6.86133ZM72.459 9.80566H73.582C74.1126 9.80566 74.4805 9.7194 74.6855 9.54688C74.8906 9.37435 74.9932 9.12207 74.9932 8.79004C74.9932 8.4515 74.8711 8.20736 74.627 8.05762C74.3861 7.90788 74.002 7.83301 73.4746 7.83301H72.459V9.80566ZM72.459 10.7529V13.0186H73.6943C74.2412 13.0186 74.6253 12.9128 74.8467 12.7012C75.068 12.4896 75.1787 12.2031 75.1787 11.8418C75.1787 11.6204 75.1283 11.4284 75.0273 11.2656C74.9297 11.1029 74.7686 10.9775 74.5439 10.8896C74.3193 10.7985 74.0166 10.7529 73.6357 10.7529H72.459ZM77.8789 14V6.86133H79.0508V13.0039H82.083V14H77.8789ZM87.3613 14H83.3184V6.86133H87.3613V7.84766H84.4902V9.78613H87.1807V10.7676H84.4902V13.0088H87.3613V14Z" fill="#7E8194"/>
    <rect x="0.5" y="0.5" width="93" height="19" rx="1.5" stroke="#CAD8E6"/>
</svg>
