<svg width="21" height="22" viewBox="0 0 21 22" fill="none" xmlns="http://www.w3.org/2000/svg">
    <path d="M7.00049 8C6.72435 8 6.50049 7.77614 6.50049 7.5C6.50049 7.22386 6.72435 7 7.00049 7C7.27663 7 7.50049 7.22386 7.50049 7.5C7.50049 7.77614 7.27663 8 7.00049 8Z" fill="#F0F0F0" stroke="#F0F0F0" stroke-linecap="round" stroke-linejoin="round"/>
    <path d="M14 8C13.7239 8 13.5 7.77614 13.5 7.5C13.5 7.22386 13.7239 7 14 7C14.2761 7 14.5 7.22386 14.5 7.5C14.5 7.77614 14.2761 8 14 8Z" fill="#F0F0F0" stroke="#F0F0F0" stroke-linecap="round" stroke-linejoin="round"/>
    <path d="M10.5 20.9999C16.0228 20.9999 20.5 16.5227 20.5 11C20.5 5.47714 16.0228 1 10.5 1C4.97715 1 0.5 5.47714 0.5 11C0.5 16.5227 4.97715 20.9999 10.5 20.9999Z" stroke="#F0F0F0" stroke-linecap="round" stroke-linejoin="round"/>
    <path d="M6 14.5C6 14.5 7.5 12.5 10.5 12.5C13.5 12.5 15 14.5 15 14.5" stroke="#F0F0F0" stroke-linecap="round" stroke-linejoin="round"/>
</svg>
