<svg width="91" height="20" viewBox="0 0 91 20" fill="none" xmlns="http://www.w3.org/2000/svg">
    <rect x="0.5" y="0.5" width="90" height="19" rx="1.5" fill="#F1F3F8"/>
    <path d="M12.624 6.86133V11.4805C12.624 11.9785 12.5182 12.4245 12.3066 12.8184C12.0983 13.2122 11.7826 13.5247 11.3594 13.7559C10.9362 13.9837 10.404 14.0977 9.7627 14.0977C8.84798 14.0977 8.15137 13.8584 7.67285 13.3799C7.19759 12.8981 6.95996 12.2585 6.95996 11.4609V6.86133H8.13184V11.3584C8.13184 11.9541 8.27181 12.3936 8.55176 12.6768C8.83171 12.96 9.25 13.1016 9.80664 13.1016C10.1908 13.1016 10.5033 13.0348 10.7441 12.9014C10.9883 12.7646 11.1673 12.5661 11.2812 12.3057C11.3984 12.042 11.457 11.7246 11.457 11.3535V6.86133H12.624ZM20.4072 14H18.9668L15.4707 8.30176H15.4268C15.4398 8.49382 15.4512 8.69727 15.4609 8.91211C15.474 9.12695 15.4837 9.34831 15.4902 9.57617C15.5 9.80404 15.5081 10.0352 15.5146 10.2695V14H14.4502V6.86133H15.8809L19.3721 12.5205H19.4062C19.3997 12.3545 19.3916 12.1641 19.3818 11.9492C19.3721 11.7344 19.3623 11.513 19.3525 11.2852C19.346 11.054 19.3411 10.8311 19.3379 10.6162V6.86133H20.4072V14ZM28.0781 10.3623C28.0781 11.1663 27.9284 11.8385 27.6289 12.3789C27.3294 12.916 26.8949 13.3213 26.3252 13.5947C25.7555 13.8649 25.0687 14 24.2646 14H22.2822V6.86133H24.4795C25.2184 6.86133 25.8564 6.99479 26.3936 7.26172C26.9307 7.52539 27.3457 7.91764 27.6387 8.43848C27.9316 8.95605 28.0781 9.59733 28.0781 10.3623ZM26.8574 10.3965C26.8574 9.81055 26.7646 9.32878 26.5791 8.95117C26.3968 8.57357 26.1266 8.29362 25.7686 8.11133C25.4137 7.92578 24.9759 7.83301 24.4551 7.83301H23.4541V13.0186H24.2842C25.1468 13.0186 25.7913 12.7988 26.2178 12.3594C26.6442 11.9199 26.8574 11.2656 26.8574 10.3965ZM33.6592 14H29.6162V6.86133H33.6592V7.84766H30.7881V9.78613H33.4785V10.7676H30.7881V13.0088H33.6592V14ZM37.6777 14H36.501V7.85742H34.4111V6.86133H39.7627V7.85742H37.6777V14ZM44.8994 14H40.8564V6.86133H44.8994V7.84766H42.0283V9.78613H44.7188V10.7676H42.0283V13.0088H44.8994V14ZM48.4492 6.86133C49.0645 6.86133 49.5723 6.9362 49.9727 7.08594C50.3763 7.23568 50.6758 7.46354 50.8711 7.76953C51.0697 8.07552 51.1689 8.46452 51.1689 8.93652C51.1689 9.28809 51.1038 9.58757 50.9736 9.83496C50.8434 10.0824 50.6725 10.2874 50.4609 10.4502C50.2493 10.613 50.0231 10.7432 49.7822 10.8408L51.8086 14H50.4854L48.7617 11.1387H47.6143V14H46.4424V6.86133H48.4492ZM48.3711 7.83789H47.6143V10.1719H48.4248C48.9684 10.1719 49.3623 10.071 49.6064 9.86914C49.8538 9.66732 49.9775 9.36947 49.9775 8.97559C49.9775 8.56217 49.8457 8.26921 49.582 8.09668C49.3216 7.92415 48.918 7.83789 48.3711 7.83789ZM55.9102 14L53.8545 8.03809H53.8105C53.8203 8.17155 53.8317 8.35384 53.8447 8.58496C53.8577 8.81608 53.8691 9.06348 53.8789 9.32715C53.8887 9.59082 53.8936 9.8431 53.8936 10.084V14H52.8291V6.86133H54.4746L56.4521 12.5596H56.4814L58.5273 6.86133H60.168V14H59.0498V10.0254C59.0498 9.80729 59.0531 9.57129 59.0596 9.31738C59.0693 9.06348 59.0791 8.82259 59.0889 8.59473C59.1019 8.36686 59.1117 8.18457 59.1182 8.04785H59.0791L56.9453 14H55.9102ZM62.0479 14V6.86133H63.2197V14H62.0479ZM71.0615 14H69.6211L66.125 8.30176H66.0811C66.0941 8.49382 66.1055 8.69727 66.1152 8.91211C66.1283 9.12695 66.138 9.34831 66.1445 9.57617C66.1543 9.80404 66.1624 10.0352 66.1689 10.2695V14H65.1045V6.86133H66.5352L70.0264 12.5205H70.0605C70.054 12.3545 70.0459 12.1641 70.0361 11.9492C70.0264 11.7344 70.0166 11.513 70.0068 11.2852C70.0003 11.054 69.9954 10.8311 69.9922 10.6162V6.86133H71.0615V14ZM76.9795 14H72.9365V6.86133H76.9795V7.84766H74.1084V9.78613H76.7988V10.7676H74.1084V13.0088H76.9795V14ZM84.3184 10.3623C84.3184 11.1663 84.1686 11.8385 83.8691 12.3789C83.5697 12.916 83.1351 13.3213 82.5654 13.5947C81.9958 13.8649 81.3089 14 80.5049 14H78.5225V6.86133H80.7197C81.4587 6.86133 82.0967 6.99479 82.6338 7.26172C83.1709 7.52539 83.5859 7.91764 83.8789 8.43848C84.1719 8.95605 84.3184 9.59733 84.3184 10.3623ZM83.0977 10.3965C83.0977 9.81055 83.0049 9.32878 82.8193 8.95117C82.637 8.57357 82.3669 8.29362 82.0088 8.11133C81.654 7.92578 81.2161 7.83301 80.6953 7.83301H79.6943V13.0186H80.5244C81.387 13.0186 82.0316 12.7988 82.458 12.3594C82.8844 11.9199 83.0977 11.2656 83.0977 10.3965Z" fill="#7E8194"/>
    <rect x="0.5" y="0.5" width="90" height="19" rx="1.5" stroke="#CAD8E6"/>
</svg>
