<svg width="109" height="20" viewBox="0 0 109 20" fill="none" xmlns="http://www.w3.org/2000/svg">
    <rect width="109" height="20" rx="2" fill="#F7F1FB"/>
    <path d="M20.916 6.86133V11.4805C20.916 11.972 20.807 12.4163 20.5889 12.8135C20.374 13.2074 20.0469 13.5199 19.6074 13.751C19.1712 13.9821 18.6211 14.0977 17.957 14.0977C17.013 14.0977 16.2936 13.8568 15.7988 13.375C15.304 12.8932 15.0566 12.2552 15.0566 11.4609V6.86133H16.5654V11.2314C16.5654 11.8206 16.6859 12.234 16.9268 12.4717C17.1676 12.7093 17.5241 12.8281 17.9961 12.8281C18.3281 12.8281 18.5967 12.7712 18.8018 12.6572C19.0101 12.5433 19.1631 12.3675 19.2607 12.1299C19.3584 11.8923 19.4072 11.5895 19.4072 11.2217V6.86133H20.916ZM28.9971 14H27.0732L23.9678 8.59961H23.9238C23.9368 8.82422 23.9482 9.05046 23.958 9.27832C23.9678 9.50618 23.9775 9.73405 23.9873 9.96191C23.9971 10.1865 24.0068 10.4128 24.0166 10.6406V14H22.6641V6.86133H24.5732L27.6738 12.208H27.708C27.7015 11.9867 27.6934 11.7669 27.6836 11.5488C27.6738 11.3307 27.6641 11.1126 27.6543 10.8945C27.6478 10.6764 27.6413 10.4583 27.6348 10.2402V6.86133H28.9971V14ZM36.7217 10.3623C36.7217 11.1663 36.5671 11.8385 36.2578 12.3789C35.9518 12.916 35.5075 13.3213 34.9248 13.5947C34.3421 13.8649 33.6406 14 32.8203 14H30.7988V6.86133H33.04C33.7887 6.86133 34.4382 6.99479 34.9883 7.26172C35.5384 7.52539 35.9648 7.91764 36.2676 8.43848C36.5703 8.95605 36.7217 9.59733 36.7217 10.3623ZM35.1494 10.4014C35.1494 9.87402 35.0713 9.44108 34.915 9.10254C34.762 8.76074 34.5342 8.50846 34.2314 8.3457C33.932 8.18294 33.5609 8.10156 33.1182 8.10156H32.3125V12.75H32.9619C33.7008 12.75 34.2493 12.5531 34.6074 12.1592C34.9688 11.7653 35.1494 11.1794 35.1494 10.4014ZM42.3125 14H38.2012V6.86133H42.3125V8.10156H39.7148V9.66895H42.1318V10.9092H39.7148V12.75H42.3125V14ZM46.5605 14H45.0469V8.12109H43.1084V6.86133H48.499V8.12109H46.5605V14ZM53.709 14H49.5977V6.86133H53.709V8.10156H51.1113V9.66895H53.5283V10.9092H51.1113V12.75H53.709V14ZM57.2832 6.86133C57.931 6.86133 58.4648 6.93945 58.8848 7.0957C59.3079 7.25195 59.6221 7.48796 59.8271 7.80371C60.0322 8.11947 60.1348 8.51823 60.1348 9C60.1348 9.32552 60.0729 9.61035 59.9492 9.85449C59.8255 10.0986 59.6628 10.3053 59.4609 10.4746C59.2591 10.6439 59.041 10.7822 58.8066 10.8896L60.9062 14H59.2266L57.5225 11.2607H56.7168V14H55.2031V6.86133H57.2832ZM57.1758 8.10156H56.7168V10.0303H57.2051C57.7064 10.0303 58.0645 9.94727 58.2793 9.78125C58.4974 9.61198 58.6064 9.36458 58.6064 9.03906C58.6064 8.70052 58.4893 8.45964 58.2549 8.31641C58.0238 8.17318 57.6641 8.10156 57.1758 8.10156ZM64.8271 14L63.1084 8.39941H63.0645C63.071 8.53288 63.0807 8.7347 63.0938 9.00488C63.11 9.27181 63.1247 9.55664 63.1377 9.85938C63.1507 10.1621 63.1572 10.4355 63.1572 10.6797V14H61.8047V6.86133H63.8652L65.5547 12.3203H65.584L67.376 6.86133H69.4365V14H68.0254V10.6211C68.0254 10.3965 68.0286 10.1377 68.0352 9.84473C68.0449 9.55176 68.0563 9.27344 68.0693 9.00977C68.0824 8.74284 68.0921 8.54264 68.0986 8.40918H68.0547L66.2139 14H64.8271ZM71.2383 14V6.86133H72.752V14H71.2383ZM80.8818 14H78.958L75.8525 8.59961H75.8086C75.8216 8.82422 75.833 9.05046 75.8428 9.27832C75.8525 9.50618 75.8623 9.73405 75.8721 9.96191C75.8818 10.1865 75.8916 10.4128 75.9014 10.6406V14H74.5488V6.86133H76.458L79.5586 12.208H79.5928C79.5863 11.9867 79.5781 11.7669 79.5684 11.5488C79.5586 11.3307 79.5488 11.1126 79.5391 10.8945C79.5326 10.6764 79.526 10.4583 79.5195 10.2402V6.86133H80.8818V14ZM86.7949 14H82.6836V6.86133H86.7949V8.10156H84.1973V9.66895H86.6143V10.9092H84.1973V12.75H86.7949V14ZM94.2119 10.3623C94.2119 11.1663 94.0573 11.8385 93.748 12.3789C93.4421 12.916 92.9977 13.3213 92.415 13.5947C91.8324 13.8649 91.1309 14 90.3105 14H88.2891V6.86133H90.5303C91.279 6.86133 91.9284 6.99479 92.4785 7.26172C93.0286 7.52539 93.4551 7.91764 93.7578 8.43848C94.0605 8.95605 94.2119 9.59733 94.2119 10.3623ZM92.6396 10.4014C92.6396 9.87402 92.5615 9.44108 92.4053 9.10254C92.2523 8.76074 92.0244 8.50846 91.7217 8.3457C91.4222 8.18294 91.0511 8.10156 90.6084 8.10156H89.8027V12.75H90.4521C91.1911 12.75 91.7396 12.5531 92.0977 12.1592C92.459 11.7653 92.6396 11.1794 92.6396 10.4014Z" fill="#A55FD3"/>
</svg>
