<svg width="101" height="20" viewBox="0 0 101 20" fill="none" xmlns="http://www.w3.org/2000/svg">
<rect x="0.5" y="0.5" width="100" height="19" rx="1.5" fill="white"/>
<rect x="0.5" y="0.5" width="100" height="19" rx="1.5" stroke="#C9D0E3"/>
<path d="M16.0527 6.43359V11.9766C16.0527 12.5742 15.9258 13.1094 15.6719 13.582C15.4219 14.0547 15.043 14.4297 14.5352 14.707C14.0273 14.9805 13.3887 15.1172 12.6191 15.1172C11.5215 15.1172 10.6855 14.8301 10.1113 14.2559C9.54102 13.6777 9.25586 12.9102 9.25586 11.9531V6.43359H10.6621V11.8301C10.6621 12.5449 10.8301 13.0723 11.166 13.4121C11.502 13.752 12.0039 13.9219 12.6719 13.9219C13.1328 13.9219 13.5078 13.8418 13.7969 13.6816C14.0898 13.5176 14.3047 13.2793 14.4414 12.9668C14.582 12.6504 14.6523 12.2695 14.6523 11.8242V6.43359H16.0527ZM21.4844 8.39062C22.2148 8.39062 22.7832 8.58008 23.1895 8.95898C23.5996 9.33398 23.8047 9.9375 23.8047 10.7695V15H22.4277V11.0273C22.4277 10.5234 22.3242 10.1465 22.1172 9.89648C21.9102 9.64258 21.5898 9.51562 21.1562 9.51562C20.5273 9.51562 20.0898 9.70898 19.8438 10.0957C19.6016 10.4824 19.4805 11.043 19.4805 11.7773V15H18.1035V8.51367H19.1758L19.3691 9.39258H19.4453C19.5859 9.16602 19.7598 8.98047 19.9668 8.83594C20.1777 8.6875 20.4121 8.57617 20.6699 8.50195C20.9316 8.42773 21.2031 8.39062 21.4844 8.39062ZM27.9121 15.1172C27.1387 15.1172 26.5176 14.8359 26.0488 14.2734C25.584 13.707 25.3516 12.873 25.3516 11.7715C25.3516 10.6582 25.5879 9.81641 26.0605 9.24609C26.5371 8.67578 27.1641 8.39062 27.9414 8.39062C28.2695 8.39062 28.5566 8.43555 28.8027 8.52539C29.0488 8.61133 29.2598 8.72852 29.4355 8.87695C29.6152 9.02539 29.7676 9.19141 29.8926 9.375H29.957C29.9375 9.25391 29.9141 9.08008 29.8867 8.85352C29.8633 8.62305 29.8516 8.41016 29.8516 8.21484V5.88281H31.2344V15H30.1562L29.9102 14.1152H29.8516C29.7344 14.3027 29.5859 14.4727 29.4062 14.625C29.2305 14.7734 29.0195 14.8926 28.7734 14.9824C28.5312 15.0723 28.2441 15.1172 27.9121 15.1172ZM28.2988 13.998C28.8887 13.998 29.3047 13.8281 29.5469 13.4883C29.7891 13.1484 29.9141 12.6387 29.9219 11.959V11.7773C29.9219 11.0508 29.8047 10.4941 29.5703 10.1074C29.3359 9.7168 28.9082 9.52148 28.2871 9.52148C27.791 9.52148 27.4121 9.72266 27.1504 10.125C26.8926 10.5234 26.7637 11.0801 26.7637 11.7949C26.7637 12.5098 26.8926 13.0566 27.1504 13.4355C27.4121 13.8105 27.7949 13.998 28.2988 13.998ZM35.793 8.39062C36.3711 8.39062 36.8672 8.50977 37.2812 8.74805C37.6953 8.98633 38.0137 9.32422 38.2363 9.76172C38.459 10.1992 38.5703 10.7227 38.5703 11.332V12.0703H34.2402C34.2559 12.6992 34.4238 13.1836 34.7441 13.5234C35.0684 13.8633 35.5215 14.0332 36.1035 14.0332C36.5176 14.0332 36.8887 13.9941 37.2168 13.916C37.5488 13.834 37.8906 13.7148 38.2422 13.5586V14.6777C37.918 14.8301 37.5879 14.9414 37.252 15.0117C36.916 15.082 36.5137 15.1172 36.0449 15.1172C35.4082 15.1172 34.8477 14.9941 34.3633 14.748C33.8828 14.498 33.5059 14.127 33.2324 13.6348C32.9629 13.1426 32.8281 12.5312 32.8281 11.8008C32.8281 11.0742 32.9512 10.457 33.1973 9.94922C33.4434 9.44141 33.7891 9.05469 34.2344 8.78906C34.6797 8.52344 35.1992 8.39062 35.793 8.39062ZM35.793 9.42773C35.3594 9.42773 35.0078 9.56836 34.7383 9.84961C34.4727 10.1309 34.3164 10.543 34.2695 11.0859H37.2227C37.2188 10.7617 37.1641 10.4746 37.0586 10.2246C36.957 9.97461 36.8008 9.7793 36.5898 9.63867C36.3828 9.49805 36.1172 9.42773 35.793 9.42773ZM42.5371 14.0039C42.7168 14.0039 42.8945 13.9883 43.0703 13.957C43.2461 13.9219 43.4062 13.8809 43.5508 13.834V14.877C43.3984 14.9434 43.2012 15 42.959 15.0469C42.7168 15.0938 42.4648 15.1172 42.2031 15.1172C41.8359 15.1172 41.5059 15.0566 41.2129 14.9355C40.9199 14.8105 40.6875 14.5977 40.5156 14.2969C40.3438 13.9961 40.2578 13.5801 40.2578 13.0488V9.5625H39.373V8.94727L40.3223 8.46094L40.7734 7.07227H41.6406V8.51367H43.498V9.5625H41.6406V13.0312C41.6406 13.3594 41.7227 13.6035 41.8867 13.7637C42.0508 13.9238 42.2676 14.0039 42.5371 14.0039ZM47.4531 8.39062C48.0312 8.39062 48.5273 8.50977 48.9414 8.74805C49.3555 8.98633 49.6738 9.32422 49.8965 9.76172C50.1191 10.1992 50.2305 10.7227 50.2305 11.332V12.0703H45.9004C45.916 12.6992 46.084 13.1836 46.4043 13.5234C46.7285 13.8633 47.1816 14.0332 47.7637 14.0332C48.1777 14.0332 48.5488 13.9941 48.877 13.916C49.209 13.834 49.5508 13.7148 49.9023 13.5586V14.6777C49.5781 14.8301 49.248 14.9414 48.9121 15.0117C48.5762 15.082 48.1738 15.1172 47.7051 15.1172C47.0684 15.1172 46.5078 14.9941 46.0234 14.748C45.543 14.498 45.166 14.127 44.8926 13.6348C44.623 13.1426 44.4883 12.5312 44.4883 11.8008C44.4883 11.0742 44.6113 10.457 44.8574 9.94922C45.1035 9.44141 45.4492 9.05469 45.8945 8.78906C46.3398 8.52344 46.8594 8.39062 47.4531 8.39062ZM47.4531 9.42773C47.0195 9.42773 46.668 9.56836 46.3984 9.84961C46.1328 10.1309 45.9766 10.543 45.9297 11.0859H48.8828C48.8789 10.7617 48.8242 10.4746 48.7188 10.2246C48.6172 9.97461 48.4609 9.7793 48.25 9.63867C48.043 9.49805 47.7773 9.42773 47.4531 9.42773ZM55.0703 8.39062C55.1797 8.39062 55.2988 8.39648 55.4277 8.4082C55.5566 8.41992 55.668 8.43555 55.7617 8.45508L55.6328 9.74414C55.5508 9.7207 55.4492 9.70312 55.3281 9.69141C55.2109 9.67969 55.1055 9.67383 55.0117 9.67383C54.7656 9.67383 54.5312 9.71484 54.3086 9.79688C54.0859 9.875 53.8887 9.99609 53.7168 10.1602C53.5449 10.3203 53.4102 10.5215 53.3125 10.7637C53.2148 11.0059 53.166 11.2871 53.166 11.6074V15H51.7832V8.51367H52.8613L53.0488 9.65625H53.1133C53.2422 9.42578 53.4023 9.21484 53.5938 9.02344C53.7852 8.83203 54.0039 8.67969 54.25 8.56641C54.5 8.44922 54.7734 8.39062 55.0703 8.39062ZM64.293 8.39062C65.0195 8.39062 65.5664 8.57812 65.9336 8.95312C66.3047 9.32812 66.4902 9.92969 66.4902 10.7578V15H65.1133V11.0039C65.1133 10.5117 65.0176 10.1406 64.8262 9.89062C64.6348 9.64062 64.3438 9.51562 63.9531 9.51562C63.4062 9.51562 63.0117 9.69141 62.7695 10.043C62.5312 10.3906 62.4121 10.8965 62.4121 11.5605V15H61.0352V11.0039C61.0352 10.6758 60.9922 10.4023 60.9062 10.1836C60.8242 9.96094 60.6973 9.79492 60.5254 9.68555C60.3535 9.57227 60.1367 9.51562 59.875 9.51562C59.4961 9.51562 59.1934 9.60156 58.9668 9.77344C58.7441 9.94531 58.584 10.1992 58.4863 10.5352C58.3887 10.8672 58.3398 11.2754 58.3398 11.7598V15H56.9629V8.51367H58.0352L58.2285 9.38672H58.3047C58.4375 9.16016 58.6016 8.97461 58.7969 8.83008C58.9961 8.68164 59.2168 8.57227 59.459 8.50195C59.7012 8.42773 59.9531 8.39062 60.2148 8.39062C60.6992 8.39062 61.1074 8.47656 61.4395 8.64844C61.7715 8.81641 62.0195 9.07422 62.1836 9.42188H62.2891C62.4922 9.07031 62.7754 8.81055 63.1387 8.64258C63.502 8.47461 63.8867 8.39062 64.293 8.39062ZM69.7891 8.51367V15H68.4121V8.51367H69.7891ZM69.1094 6.0293C69.3203 6.0293 69.502 6.08594 69.6543 6.19922C69.8105 6.3125 69.8887 6.50781 69.8887 6.78516C69.8887 7.05859 69.8105 7.25391 69.6543 7.37109C69.502 7.48438 69.3203 7.54102 69.1094 7.54102C68.8906 7.54102 68.7051 7.48438 68.5527 7.37109C68.4043 7.25391 68.3301 7.05859 68.3301 6.78516C68.3301 6.50781 68.4043 6.3125 68.5527 6.19922C68.7051 6.08594 68.8906 6.0293 69.1094 6.0293ZM75.1445 8.39062C75.875 8.39062 76.4434 8.58008 76.8496 8.95898C77.2598 9.33398 77.4648 9.9375 77.4648 10.7695V15H76.0879V11.0273C76.0879 10.5234 75.9844 10.1465 75.7773 9.89648C75.5703 9.64258 75.25 9.51562 74.8164 9.51562C74.1875 9.51562 73.75 9.70898 73.5039 10.0957C73.2617 10.4824 73.1406 11.043 73.1406 11.7773V15H71.7637V8.51367H72.8359L73.0293 9.39258H73.1055C73.2461 9.16602 73.4199 8.98047 73.627 8.83594C73.8379 8.6875 74.0723 8.57617 74.3301 8.50195C74.5918 8.42773 74.8633 8.39062 75.1445 8.39062ZM81.9766 8.39062C82.5547 8.39062 83.0508 8.50977 83.4648 8.74805C83.8789 8.98633 84.1973 9.32422 84.4199 9.76172C84.6426 10.1992 84.7539 10.7227 84.7539 11.332V12.0703H80.4238C80.4395 12.6992 80.6074 13.1836 80.9277 13.5234C81.252 13.8633 81.7051 14.0332 82.2871 14.0332C82.7012 14.0332 83.0723 13.9941 83.4004 13.916C83.7324 13.834 84.0742 13.7148 84.4258 13.5586V14.6777C84.1016 14.8301 83.7715 14.9414 83.4355 15.0117C83.0996 15.082 82.6973 15.1172 82.2285 15.1172C81.5918 15.1172 81.0312 14.9941 80.5469 14.748C80.0664 14.498 79.6895 14.127 79.416 13.6348C79.1465 13.1426 79.0117 12.5312 79.0117 11.8008C79.0117 11.0742 79.1348 10.457 79.3809 9.94922C79.627 9.44141 79.9727 9.05469 80.418 8.78906C80.8633 8.52344 81.3828 8.39062 81.9766 8.39062ZM81.9766 9.42773C81.543 9.42773 81.1914 9.56836 80.9219 9.84961C80.6562 10.1309 80.5 10.543 80.4531 11.0859H83.4062C83.4023 10.7617 83.3477 10.4746 83.2422 10.2246C83.1406 9.97461 82.9844 9.7793 82.7734 9.63867C82.5664 9.49805 82.3008 9.42773 81.9766 9.42773ZM88.4863 15.1172C87.7129 15.1172 87.0918 14.8359 86.623 14.2734C86.1582 13.707 85.9258 12.873 85.9258 11.7715C85.9258 10.6582 86.1621 9.81641 86.6348 9.24609C87.1113 8.67578 87.7383 8.39062 88.5156 8.39062C88.8438 8.39062 89.1309 8.43555 89.377 8.52539C89.623 8.61133 89.834 8.72852 90.0098 8.87695C90.1895 9.02539 90.3418 9.19141 90.4668 9.375H90.5312C90.5117 9.25391 90.4883 9.08008 90.4609 8.85352C90.4375 8.62305 90.4258 8.41016 90.4258 8.21484V5.88281H91.8086V15H90.7305L90.4844 14.1152H90.4258C90.3086 14.3027 90.1602 14.4727 89.9805 14.625C89.8047 14.7734 89.5938 14.8926 89.3477 14.9824C89.1055 15.0723 88.8184 15.1172 88.4863 15.1172ZM88.873 13.998C89.4629 13.998 89.8789 13.8281 90.1211 13.4883C90.3633 13.1484 90.4883 12.6387 90.4961 11.959V11.7773C90.4961 11.0508 90.3789 10.4941 90.1445 10.1074C89.9102 9.7168 89.4824 9.52148 88.8613 9.52148C88.3652 9.52148 87.9863 9.72266 87.7246 10.125C87.4668 10.5234 87.3379 11.0801 87.3379 11.7949C87.3379 12.5098 87.4668 13.0566 87.7246 13.4355C87.9863 13.8105 88.3691 13.998 88.873 13.998Z" fill="#414857"/>
</svg>
