
<svg width="12" height="12" viewBox="0 0 12 12" fill="none" xmlns="http://www.w3.org/2000/svg">
<path fill-rule="evenodd" clip-rule="evenodd" d="M6.49042 0.845163C6.1747 0.718279 5.82117 0.718279 5.50545 0.845163L1.64455 2.39032C1.49133 2.45144 1.36007 2.55623 1.26753 2.69129C1.175 2.82635 1.12539 2.98555 1.12506 3.14855V4.97241C1.11912 6.36932 1.56938 7.73101 2.40918 8.85595C3.24899 9.98089 4.43373 10.8093 5.78806 11.2186C5.92334 11.2605 6.06838 11.2605 6.20366 11.2186C7.55783 10.8106 8.74303 9.98388 9.58421 8.86059C10.4254 7.7373 10.8779 6.377 10.875 4.9806V3.14855C10.8763 2.98416 10.8275 2.82317 10.7348 2.68649C10.6422 2.54981 10.51 2.44377 10.3555 2.38212L6.49042 0.845163ZM5.60986 4.16266C5.60986 4.05321 5.65334 3.94826 5.73073 3.87087C5.80812 3.79348 5.91308 3.75 6.02252 3.75C6.07631 3.74999 6.12955 3.76072 6.17913 3.78156C6.22871 3.80241 6.27363 3.83295 6.31125 3.87138C6.34887 3.90982 6.37844 3.95538 6.39821 4.0054C6.41798 4.05542 6.42757 4.10889 6.4264 4.16266V6.60348C6.42757 6.65725 6.41798 6.71071 6.39821 6.76073C6.37844 6.81075 6.34887 6.85632 6.31125 6.89476C6.27363 6.93319 6.22871 6.96373 6.17913 6.98457C6.12955 7.00541 6.07631 7.01615 6.02252 7.01613C5.91308 7.01613 5.80812 6.97266 5.73073 6.89527C5.65334 6.81788 5.60986 6.71292 5.60986 6.60348V4.16266ZM6.4264 8.25411C6.4264 8.36122 6.38384 8.46394 6.3081 8.53969C6.23236 8.61543 6.12964 8.65798 6.02252 8.65798C5.91458 8.65801 5.81093 8.61574 5.73379 8.54024C5.65665 8.46474 5.61216 8.36202 5.60986 8.25411C5.61216 8.14619 5.65665 8.04347 5.73379 7.96797C5.81093 7.89247 5.91458 7.8502 6.02252 7.85022C6.12964 7.85022 6.23236 7.89278 6.3081 7.96852C6.38384 8.04426 6.4264 8.14699 6.4264 8.25411Z" fill="#B91C1C"/>
</svg>
